<svg width="141" height="52" viewBox="0 0 141 52" fill="none" xmlns="http://www.w3.org/2000/svg">
<path fill-rule="evenodd" clip-rule="evenodd" d="M75.8152 30.2163C76.4979 28.1497 77.6596 26.5886 78.8779 25.005C79.0552 24.7728 79.1872 24.5407 79.4625 24.4846C79.538 25.1697 78.2065 29.2728 77.9048 29.621C77.8595 30.8302 75.4418 34.4879 78.2442 35.9666C79.553 36.6592 81.9443 36.2062 83.3021 35.3826C83.5322 35.2441 83.6982 35.1243 83.9358 34.9783C84.2451 34.7874 84.3545 34.6039 84.7618 34.6039C84.8146 36.4384 87.5604 36.7903 88.1375 36.0752C88.7712 35.3078 89.4086 33.2786 89.9027 32.1555C90.0988 31.7063 90.8871 29.8157 91.1323 29.6247C91.8187 30.1414 91.7207 31.5191 93.3953 32.2042C94.0403 32.4625 94.1912 32.3539 94.8286 32.4588C94.9945 33.2637 94.4514 33.8926 95.1152 34.9671C96.541 37.2133 100.332 36.0902 101.61 35.1206C102.889 34.1509 101.757 36.5432 105.627 36.356C106.417 36.3079 107.185 36.0758 107.867 35.6784C108.373 35.3901 109.516 34.5553 109.716 34.6376C110.263 35.2553 109.953 35.7271 111.089 36.1688C114.37 37.4567 117.346 34.6713 117.749 34.8959C117.927 35.042 117.87 34.997 118.002 35.3078C118.847 37.3444 121.02 36.517 121.261 36.1501C122.015 35.0944 122.607 33.5033 123.207 32.2791C123.66 31.3544 126.066 26.8282 126.907 25.8398C127.138 25.5724 127.352 25.2911 127.548 24.9975C127.25 24.7991 127.53 24.9975 127.431 24.859C127.409 24.835 127.391 24.8071 127.379 24.7766C127.375 24.7594 127.365 24.7437 127.352 24.7317C127.043 25.0274 127.413 24.8777 126.888 25.0611L126.553 23.8781C126.387 23.4632 126.29 23.0245 126.266 22.579L126.1 22.609C126.123 22.609 126.247 22.609 126.345 23.3577C126.345 23.8893 126.798 24.6493 126.832 25.136C126.715 25.297 126.832 25.136 126.696 25.2483L126.56 25.3606C126.492 25.4243 126.409 25.5478 126.338 25.6339C124.999 27.2662 123.181 30.7329 122.4 32.747L121.623 34.9409C121.385 35.5249 121.502 35.4388 121.212 35.6222C121.186 34.3718 123.037 28.8236 123.475 27.2624C123.603 26.8207 123.762 26.3901 123.912 25.9521L124.233 24.9563C124.289 24.8356 124.335 24.7104 124.369 24.5819C124.339 24.1102 124.459 24.2787 124.603 23.8631L124.705 23.5262C124.863 23.0732 124.855 23.3278 124.791 23.0695L124.746 22.7587C124.712 22.4929 124.746 22.7101 124.701 22.5191L124.622 22.3619C124.373 22.5828 124.595 22.3282 124.384 22.7363C124.041 23.4101 123.939 23.9754 123.63 24.6081L123.309 25.2483C123.433 24.7317 123.784 23.9193 123.946 23.3502C124.024 23.0471 124.152 22.7587 124.324 22.4967C124.474 22.2533 124.493 22.3057 124.599 22.0998C124.667 21.9688 124.678 21.8602 124.772 21.6955C124.799 21.7329 124.852 21.718 124.799 21.9688L124.689 22.2496C124.87 22.1897 124.803 22.1747 124.886 22.3506L125.123 22.01L125.048 21.3586C125.002 20.6098 124.95 20.9842 124.916 20.7895C124.916 20.7334 124.878 20.7296 124.852 20.7071C124.819 20.8159 124.798 20.9275 124.787 21.0403L124.671 21.3361C124.373 21.8003 124.546 21.673 124.354 21.98C124.082 22.4068 123.275 24.683 123.12 24.9488C122.992 24.6905 123.381 23.7995 123.52 23.3952C123.526 23.3746 123.534 23.3545 123.543 23.3353C123.788 22.6389 123.445 23.2791 123.637 22.6726L124.821 19.6589C124.991 19.3257 125.033 19.5166 125.161 18.9925L125.338 19.3032C125.399 19.4086 125.467 19.5099 125.542 19.6065L125.598 19.6814V19.715L125.644 19.8199C125.669 19.8729 125.702 19.9221 125.742 19.9659L125.851 20.0745C125.799 19.7754 125.704 19.4854 125.568 19.2134C125.414 18.8727 125.338 18.839 125.425 18.4347L125.448 17.9181C125.142 18.0304 125.319 17.9817 125.21 18.079L123.094 22.564C123.085 22.5835 123.075 22.6023 123.064 22.6202L123.218 21.9276C123.655 20.8219 124.191 19.7569 124.818 18.7454L125.534 17.5549C125.595 17.349 125.572 17.4988 125.58 17.2292C125.142 17.3527 125.15 17.5025 124.787 18.0715L124.195 19.0524C124.146 19.1385 124.097 19.2059 124.041 19.3107L123.909 19.5915C123.833 19.745 123.743 19.9022 123.652 20.067L123.317 20.7221C123.308 20.7404 123.298 20.7579 123.286 20.7745L125.116 17.4838C125.708 16.5254 125.602 17.1768 125.674 16.6265C125.772 15.8777 125.742 16.4992 125.576 16.2521C125.353 16.3719 125.346 16.458 125.131 16.7912L123.505 19.4118C123.447 19.4993 123.396 19.5906 123.35 19.6851C123.151 20.0595 123.192 19.9322 122.973 19.9097H122.902C122.755 20.1081 122.845 19.9771 122.672 20.1643C122.498 20.3515 122.615 20.2841 122.392 20.4226C122.472 20.183 122.521 20.1007 122.607 19.8873C122.457 19.9472 122.607 19.9659 122.498 19.8873C122.698 19.6439 122.845 19.4156 123.06 19.1385C123.275 18.8615 123.49 18.6181 123.437 18.3523H123.305H123.26C123.053 18.3523 123.418 18.4871 123.102 18.3523L123.177 18.2475C124.007 17.0832 124.648 16.5366 125.202 15.7167C125.361 15.5493 125.484 15.3521 125.564 15.1367C125.645 14.9213 125.681 14.692 125.67 14.4626C125.417 14.5711 125.497 14.5337 125.293 14.7696C125.283 14.7852 125.271 14.8002 125.259 14.8145L125.168 14.9642C124.312 16.5254 124.037 16.4617 123.283 17.4838L123.086 17.8582C123.015 17.5287 123.618 17.0083 123.841 16.7013L124.218 16.1735C124.618 15.6943 124.716 16.005 124.769 15.4958C124.478 15.5195 124.208 15.6536 124.014 15.8702C123.773 16.1173 123.72 16.2671 123.513 16.5104C123.325 16.7069 123.157 16.9213 123.011 17.1506C122.855 17.3981 122.719 17.6572 122.604 17.9255V17.7683C122.362 18.0229 122.008 19.453 121.91 19.8236C121.729 20.5125 121.51 21.1901 121.314 21.8677L118.259 32.1293C118.059 32.7545 118.055 33.799 117.693 34.2108C117.331 34.6226 115.136 35.8169 113.993 35.5923C113.182 35.4313 113.37 34.4467 113.521 33.638L115.551 26.304C115.928 25.5553 116.682 26.6148 117.406 25.7986C117.542 25.6839 117.644 25.5353 117.703 25.3681C117.761 25.2009 117.773 25.0212 117.738 24.8477C117.154 24.668 116.565 24.9151 115.984 24.9526C116.111 24.2078 116.302 23.4751 116.554 22.7625L117.787 18.4384C117.923 17.7833 118.225 16.7949 118.289 16.2371C117.912 15.8627 118.64 16.282 118.119 16.2933C117.957 16.2933 118.142 15.5183 117.919 17.1918C117.761 18.3823 117.576 17.9405 117.353 18.225C117.233 18.3748 117.229 18.9513 117.112 19.2059L117.025 19.3482C117.025 19.3482 116.991 19.3968 116.976 19.423L116.893 19.015C116.895 18.9225 116.909 18.8307 116.935 18.7417C116.978 18.5502 116.993 18.3535 116.98 18.1576C116.822 18.3299 116.535 18.3374 116.278 18.4085C116.335 17.6597 116.501 17.7309 116.162 17.4838C116.162 18.4459 116.113 18.3261 115.313 18.5021C115.417 18.1996 115.469 17.882 115.468 17.5624L115.268 18.6631C114.208 18.6818 114.136 19.0374 114.027 19.6739C113.684 19.3519 113.985 19.76 113.861 19.4268C113.736 19.0936 114.098 18.5807 114.238 18.386C114.204 18.2026 114.238 18.386 114.098 18.2849C114 18.9513 113.699 18.9364 113.51 19.7824C113.272 20.8232 112.469 23.9305 112.096 24.814C111.202 24.9189 110.523 24.7317 110.587 26.0682C110.99 26.0786 111.392 26.0139 111.771 25.8773C111.749 26.9068 110.413 30.7441 110.081 31.9908C109.927 32.5711 109.855 33.0503 109.727 33.6268C109.587 34.282 109.218 34.3419 108.795 34.6339C107.939 35.2291 107.098 35.6559 105.884 35.3826C105.352 33.8065 106.638 31.0099 107.015 29.4675C107.305 28.2171 108.69 24.814 108.697 23.9118C108.094 23.8893 105.831 24.4696 105.148 24.6605C104.364 24.8739 104.473 25.1734 104.232 25.9484C103.79 27.3935 102.346 31.9983 102.187 33.0952C101.984 34.4579 102.319 34.0461 101.474 34.6751C101.071 35.0285 100.591 35.2847 100.071 35.4238C99.4112 35.5773 98.5287 35.6784 98.4457 34.8959C98.3514 33.99 99.0416 31.9009 99.3019 31.0474L100.841 25.7649C101.076 25.1487 101.24 24.5083 101.331 23.8556C100.516 23.9571 99.7095 24.1236 98.9209 24.3536C96.2317 25.1772 97.8196 23.6497 95.6584 30.0103C95.515 30.4409 95.4622 30.7329 95.334 31.1747C95.1831 31.6763 95.07 31.74 94.5306 31.8186C93.3991 31.9871 92.9012 31.695 92.4901 30.9313C92.1846 30.3623 91.8414 29.2204 92.1959 28.5203C92.377 28.2251 92.6035 27.9599 92.8673 27.7342L94.9116 25.312C95.9299 23.7882 94.1006 23.1967 92.9955 23.9904C92.2864 24.4996 91.5283 25.7949 91.2945 26.7795C91.0606 27.7641 91.1021 28.2995 90.691 29.1643C89.3709 31.9421 89.5293 32.2004 88.609 34.5852L88.2959 35.4163C88.1111 35.7233 88.262 35.5286 88.0696 35.6559C88.0696 34.6975 89.3407 30.6281 89.6311 29.6959C89.9781 28.5915 91.2756 24.7317 91.3812 23.8706C90.8909 23.8332 89.6538 24.1776 89.1182 24.3311C86.4968 25.0798 87.5378 23.8556 85.8556 29.4825C85.6406 30.2013 85.4294 30.9613 85.2295 31.6726C84.5921 33.9188 85.056 33.9488 82.9212 34.9783C82.1065 35.3527 81.62 35.4912 80.6997 35.2142C80.3602 33.8589 80.8769 32.6759 81.2616 31.4704C81.6464 30.2649 81.9783 29.1156 82.3932 27.9663C82.7703 26.9555 83.3474 25.3232 82.6685 24.2974C82.0612 23.3802 80.3715 23.4887 79.3305 24.0466C76.9694 25.3119 75.0798 30.0366 74.216 32.5898L73.307 35.1505C73.1826 35.4912 73.1034 35.7233 72.8092 35.7607C72.647 35.2329 73.5635 32.9492 73.7672 32.2529C74.1029 31.1522 74.4951 29.8531 74.8987 28.7599C75.3023 27.6668 75.8379 26.3565 75.5814 25.0162C75.2042 22.9796 72.3603 23.5187 71.2665 24.7392C70.1215 25.97 69.1875 27.3788 68.5019 28.9097C67.7522 30.5155 67.0899 32.1601 66.5179 33.8365C66.3307 34.2517 66.1854 34.6843 66.0842 35.1281C66.0087 35.4837 65.9974 35.4463 65.7937 35.5848C65.7937 34.2333 67.706 28.7 68.2642 26.772C68.5358 25.8248 68.9545 24.6942 69.1581 23.7508C67.9325 23.9828 66.7201 24.279 65.5259 24.6381C64.8395 24.8215 64.8282 25.2595 64.6283 26.042C64.4774 26.6335 64.2775 27.2213 64.0889 27.8203C63.4883 29.6105 62.9847 31.4313 62.5802 33.2749C62.4331 34.1734 62.203 34.2707 61.5882 34.6301C60.9735 34.9895 58.9065 36.0602 58.4803 34.9184C57.9184 33.4209 61.4977 25.0499 61.2224 23.8481C61.0112 23.8481 59.378 24.245 59.0272 24.3386C57.9598 24.6231 57.7675 24.8515 56.9452 24.1813C55.6025 23.0919 52.834 23.9717 51.6271 25.0723C50.8658 25.7933 50.2129 26.6191 49.6884 27.5245C48.357 29.6322 48.6776 30.1227 48.01 31.7587C46.6069 31.9796 45.8035 31.8897 45.3434 30.5607C45.0454 29.7034 44.9172 28.7712 45.5848 28.1235L47.9496 25.2932C48.8813 23.9979 47.3575 23.0882 46.1241 23.9006C45.5244 24.2937 44.7286 25.6302 44.4796 26.4164C44.0648 27.7154 44.242 28.3294 43.4839 29.636C43.0251 30.6124 42.6184 31.6121 42.2656 32.631C42.0016 33.2786 41.4509 35.4313 41.153 35.7383C40.8248 35.2479 41.6622 33.1813 41.7942 32.6984C42.0695 31.695 42.3675 30.7741 42.6805 29.782C42.9936 28.7899 43.2651 27.809 43.5141 26.8132C43.6876 26.1169 44.4306 24.4022 44.3175 23.8594C43.6235 23.8893 42.111 24.406 41.3001 24.5632C39.8404 24.8365 40.0516 25.5852 39.6481 26.9105L37.8942 33.185C37.7282 34.0461 37.7584 34.0012 37.1662 34.413C35.8952 35.2965 32.7646 36.7491 31.6029 35.0569C31.3433 34.5601 31.2272 34.0016 31.2673 33.4434C31.2484 32.6609 31.2295 32.2828 31.8028 32.0544C32.8762 31.5501 33.8729 30.8985 34.7636 30.1189C35.6422 29.263 36.2984 28.2083 36.6759 27.0453C36.8136 26.4187 36.8136 25.7701 36.6759 25.1435C36.3214 23.3764 33.8622 23.4438 32.61 23.8893C30.66 24.5819 29.5926 25.866 28.6949 27.8315C26.8091 31.9234 27.5181 34.2333 27.3258 34.6189C26.462 35.4987 25.2249 35.5848 24.0821 34.8735C23.8362 34.7594 23.6244 34.584 23.4673 34.3643C23.2712 34.1098 23.0901 33.99 22.8902 33.7279C21.125 31.4554 19.7484 28.9621 16.9497 28.0337C16.9678 27.6238 17.0678 27.2217 17.2439 26.8506C17.4023 26.3639 17.4815 26.2853 17.9681 26.1019C19.3688 25.6816 20.6573 24.9564 21.7398 23.9792C21.8596 23.8605 21.9855 23.748 22.117 23.6422C22.7832 23.0545 23.3804 22.3939 23.8973 21.673C25.0236 20.2201 26.0086 18.6645 26.8392 17.027C27.2267 16.3509 27.5584 15.6448 27.8312 14.9156C27.1523 14.9568 23.984 15.3948 23.6031 15.7018C23.3655 15.8927 22.0604 18.5732 21.7813 19.1273C21.2231 20.2317 20.6008 21.4484 19.9671 22.4667L18.8922 23.9979C18.5791 24.4022 18.1378 25.0911 17.6852 25.2783L18.8167 20.3665C19.1185 19.0412 20.0765 16.5478 20.2161 15.5221C18.6772 15.4921 20.0765 15.8665 17.6437 15.3723C15.1167 14.8557 12.6311 13.7625 9.96824 14.2978C8.53121 14.5861 7.15453 15.5295 6.15502 16.4767C6.03432 16.589 5.93625 16.7201 5.77784 16.8511C5.02349 17.4988 3.79767 19.3294 3.69207 20.3178C4.50676 20.2916 4.48413 19.3856 4.82359 18.7829C5.11313 18.2332 5.55908 17.7801 6.10598 17.48C7.69766 16.7313 11.7636 18.6706 14.879 17.9106C15.9389 17.6523 17.772 16.6602 18.8016 16.6265C18.6546 16.9709 18.5301 16.9484 18.2434 17.1768C18.0511 17.334 17.8663 17.5175 17.6928 17.6747C16.1501 19.1048 15.7013 19.2321 14.7131 21.2724C13.5589 23.6535 13.6495 24.6793 13.1365 26.3902C12.88 27.24 12.5557 26.9854 11.7598 27.1726C11.7598 27.9213 12.1936 27.6518 12.6009 28.0599C12.6877 29.0969 11.7447 31.6239 11.36 32.3876C10.7377 33.6156 9.95315 34.7275 8.68962 35.3003C7.24777 35.94 5.61673 36.0201 4.11827 35.5249C3.47324 35.3143 2.86029 35.017 2.29652 34.6414C1.48183 34.1135 1.24798 33.4321 0.636961 33.5444C0.512493 34.2932 1.39131 35.0644 1.79488 35.3602C2.35822 35.8672 3.03806 36.2297 3.77504 36.4159C5.23848 36.8427 7.6109 36.7042 8.93478 36.0827C10.1644 35.5062 11.8881 34.5852 12.6763 33.8365L14.2529 32.339C14.6301 31.9908 15.3241 30.8415 15.6636 30.673C15.9578 30.9163 16.3387 31.9159 16.5348 32.3315C16.8006 32.8972 17.0991 33.4472 17.4287 33.9787C18.1001 35.0569 18.7451 35.9479 19.9898 36.517C23.8596 38.284 27.2013 35.1318 27.6124 35.1992C27.7859 35.2291 28.2499 35.787 28.495 35.9479C29.6643 36.7191 31.4558 36.6967 32.7873 36.5394C33.6907 36.4294 34.5773 36.2107 35.4275 35.888C36.2271 35.611 37.434 34.7275 37.6075 34.7013C38.3619 35.6447 38.0262 36.1201 39.6103 36.4234C41.251 36.7341 41.4019 35.7158 41.7414 34.9034C42.0808 34.091 43.7442 29.9991 44.2043 29.7183C44.4947 29.9242 44.5815 30.4446 44.7889 30.7816C45.9205 32.732 47.6328 32.2791 47.8553 32.5187C48.3419 33.0652 47.1576 35.7158 50.1901 36.3897C51.4424 36.6355 52.742 36.4 53.826 35.7308C54.1464 35.5123 54.4831 35.3183 54.8331 35.1505C55.297 35.4912 55.6968 36.1052 56.3418 36.2736C58.2088 36.8053 59.9702 36.0977 61.6033 35.2291C61.7397 35.158 61.8665 35.0699 61.9805 34.9671C62.1653 34.7986 62.1276 34.7462 62.3577 34.6301C62.9498 35.3789 62.8027 36.5507 64.8433 36.4234C65.0387 36.4401 65.2354 36.4124 65.4184 36.3423C65.6014 36.2723 65.7659 36.1617 65.8993 36.0191C66.3482 35.5137 67.0724 33.1252 67.6947 31.9009C69.1242 29.0632 69.5994 27.9326 71.4023 25.3007C71.6663 24.9263 71.6777 24.6194 72.1567 24.552C72.2019 25.4692 71.6777 26.4238 71.4287 27.2213L70.6367 29.8157C70.2255 31.1634 69.1091 33.829 69.8446 35.2479C70.0412 35.6145 70.3363 35.9198 70.6971 36.13C71.058 36.3402 71.4705 36.4469 71.8889 36.4384C72.3292 36.4514 72.7602 36.311 73.1071 36.0415C73.3863 35.7982 73.5145 35.2928 73.6729 34.8772C74.0048 34.0236 74.3631 33.3273 74.6875 32.5224C74.9666 31.8373 75.4004 30.8677 75.7436 30.2387M31.3653 31.5004C31.7425 29.8718 32.8401 26.5549 33.6283 25.0723C34.0998 24.1813 34.873 23.7995 35.254 24.2375C35.6349 24.6755 35.0993 26.057 34.9296 26.4837C34.4876 27.4485 33.9613 28.373 33.3568 29.2466C32.8287 30.0216 32.4591 31.0324 31.3653 31.5004ZM56.9264 25.9184C56.3342 28.0374 54.7501 32.0058 54.7011 34.0274C54.6822 34.7761 54.3691 34.7761 53.8109 35.1243C53.5896 35.2654 53.3395 35.356 53.0786 35.3897C52.8177 35.4233 52.5526 35.3992 52.3022 35.319C50.7935 34.7013 52.8642 26.465 54.9424 24.6343C55.644 24.0166 57.3413 24.4247 56.9264 25.9184Z" fill="#145432"/>
<path fill-rule="evenodd" clip-rule="evenodd" d="M112.054 10.4604C112.367 10.5016 112.269 10.3968 112.364 10.715C112.661 10.5765 112.413 10.6738 112.492 10.8161C112.313 11.3258 112.165 11.8459 112.05 12.3735C111.837 12.8364 111.648 13.31 111.485 13.7923C111.322 14.5411 110.81 15.9487 110.7 16.514C110.53 17.3639 110.987 16.7948 111.119 16.7012C111.323 16.5627 111.209 16.383 111.368 15.7615L112.054 13.2495C112.163 12.9721 112.231 12.681 112.258 12.3847L112.771 10.2395C112.937 9.94377 112.85 10.0336 113.239 9.97372C113.193 10.3759 113.097 10.7709 112.952 11.1493L112.318 13.272C112.133 13.6126 112.213 13.272 112.092 13.7175C111.937 14.2977 111.971 15.2749 111.688 16.5066C111.57 17.2813 111.403 18.0478 111.187 18.8015C111.372 18.2174 111.462 18.0003 111.187 17.7345L110.432 21.4783C111.394 19.6738 111.82 16.5739 112.133 16.0236L111.202 21.2274C111.526 20.9991 111.511 20.7632 111.688 20.0744C111.764 19.6809 111.862 19.2922 111.983 18.91L111.866 20.7108C112.017 20.5887 112.118 20.4154 112.149 20.2241C112.198 20.007 112.186 19.7898 112.224 19.5652C112.306 19.2008 112.422 18.8449 112.571 18.502C112.781 18.1802 112.911 17.813 112.948 17.4313C112.948 17.3414 113.05 17.1243 113.099 16.9408C113.322 16.1172 114.396 12.1189 114.381 11.8493C114.325 12.5363 114.175 13.2125 113.936 13.8597C113.751 14.5373 113.623 15.1663 113.45 15.8514C113.276 16.5365 113.095 17.1842 112.925 17.8356C112.797 18.3372 112.428 18.8464 112.326 19.8909C112.348 19.8909 112.375 19.816 112.386 19.831C112.465 19.9545 112.944 18.5057 112.975 18.4271C113.165 17.9061 113.326 17.3749 113.457 16.836L115.551 8.8506C115.815 7.89968 115.551 7.92963 116.305 7.54403C115.705 8.68587 116.109 7.91841 115.766 8.92922C115.588 9.45709 115.487 9.9213 115.309 10.4604C114.992 11.4113 114.706 12.5831 114.449 13.5752C114.28 14.2341 113.378 17.8056 113.318 18.4159L113.122 19.9396C113.14 20.1043 113.122 20.0519 113.178 20.1417C113.487 19.0673 113.846 18.0041 114.185 16.8884C114.891 14.5561 115.754 10.8984 116.411 8.34519C116.451 7.9841 116.545 7.63093 116.69 7.29694C116.7 7.28131 116.711 7.2663 116.724 7.25201C116.916 6.98246 116.946 7.01241 117.169 6.95251C117.073 7.14518 116.987 7.34262 116.912 7.54403C116.841 7.78363 116.78 8.02323 116.705 8.25534C115.754 11.2953 114.728 15.2711 114.083 18.2848C114.234 18.3859 114.189 18.2025 114.223 18.3859C114.098 18.5806 113.733 19.086 113.846 19.4267C113.959 19.7674 113.669 19.3518 114.012 19.6738C114.106 19.0224 114.193 18.6817 115.253 18.663L115.453 17.5623L115.943 16.1996C116.482 14.5373 117.644 9.12389 118.036 7.16591C118.195 6.37224 118.036 6.26741 118.711 6.00909C118.523 6.91508 118.195 7.80983 117.957 8.71956C117.459 10.6775 116.362 15.7466 116.143 17.4837C116.482 17.7308 116.316 17.6447 116.26 18.4084C116.516 18.3372 116.803 18.3298 116.961 18.1575C116.975 18.3534 116.959 18.5501 116.916 18.7416C116.891 18.8306 116.877 18.9224 116.875 19.0149L116.957 19.4229C116.957 19.3967 116.995 19.3331 117.007 19.3481L117.093 19.2058C117.21 18.9512 117.214 18.3747 117.335 18.2249C117.557 17.9479 117.742 18.3822 117.9 17.1917C118.123 15.5182 117.938 16.2969 118.1 16.2932C118.621 16.2932 117.889 15.8776 118.27 16.237L118.342 16.121C118.373 16.061 118.398 15.9984 118.417 15.9338L120.68 6.16259C120.808 5.46625 120.68 5.13305 121.22 4.9234C121.144 5.20418 121.031 5.37265 120.944 5.63846C120.503 7.00493 119.869 10.0224 119.507 11.5161C118.954 13.9147 118.553 16.3454 118.308 18.794C118.779 18.2998 119.556 13.9271 119.986 13.3094C119.945 13.7811 119.681 14.8631 119.801 15.1813C120.128 14.295 120.39 13.3867 120.586 12.4633C120.812 11.5648 121.05 10.5914 121.306 9.7154C121.563 8.83936 121.834 7.8922 122.061 6.96375C122.174 6.46583 122.321 6.05776 122.438 5.58231C122.547 5.03946 122.509 4.48913 122.951 4.30569L120.311 14.9454C120.262 15.2187 120.243 15.4733 120.205 15.7316C120.148 16.0873 120.047 16.2894 120.179 16.5477L121.966 10.8834C122.227 9.99992 123.234 5.02074 123.437 4.84853C123.524 4.98705 123.517 4.72125 123.464 5.11434L122.879 7.59644C122.687 8.58104 122.479 9.60309 122.272 10.5727C121.895 12.3735 121.352 14.9866 121.401 16.7986C121.906 16.4055 121.778 15.3273 122.204 14.9529L122.774 14.5598L122.74 14.8855L122.917 14.5111L122.947 14.4625C122.953 14.4448 122.962 14.4283 122.973 14.4138L123.015 14.4887C123.111 14.3861 123.197 14.2745 123.271 14.1555C123.083 14.1555 123.158 14.2004 123.271 13.987C123.079 13.8897 123.162 14.0132 123.347 13.2907C123.452 12.8789 123.411 12.8115 123.679 12.5419L123.75 13.534C124.29 13.5939 124.297 13.5565 124.297 12.5719L124.674 12.321C124.527 12.6393 124.505 12.4483 124.444 12.9837C125.319 12.8564 125.335 12.497 125.365 11.8156L125.414 11.4637C125.153 11.3439 125.335 11.5087 125.169 11.2953C125.233 10.876 125.252 11.1231 125.063 10.876C124.855 11.2503 124.686 10.977 124.478 11.3177C124.271 11.6584 124.478 11.8156 124.211 12.1414L124.056 11.299C123.886 11.4038 123.962 11.299 123.875 11.5461C123.818 11.7685 123.818 12.0013 123.875 12.2237L123.532 12.4034C123.392 12.4671 123.464 12.3772 123.256 12.5606C123.328 12.1339 123.822 11.6359 123.633 11.2129C123.616 11.233 123.599 11.2542 123.584 11.2765L123.539 11.3402C123.354 11.6285 123.396 11.6958 123.215 11.6359C123.592 10.9733 123.592 11.445 123.682 10.8872C123.83 9.9887 124.007 10.2208 123.954 9.85392C123.765 9.93254 123.799 9.96623 123.626 10.2283C123.626 10.2283 123.596 10.2919 123.592 10.277C123.588 10.262 123.569 10.3107 123.554 10.3256C123.418 9.88013 123.999 9.86889 124.097 9.04152H123.965C123.781 9.1164 123.799 9.16881 123.743 9.35975C123.615 9.28487 123.705 9.49826 123.686 9.26989C123.686 9.13137 123.92 8.80941 123.939 8.77946C124.723 7.58521 124.761 8.31524 124.874 7.56275C124.69 7.43172 124.803 7.44294 124.41 7.42048L124.331 8.00825C123.973 8.02697 124.199 8.05692 124.041 8.20293C123.72 8.49494 123.728 8.31898 123.633 8.26282C123.684 8.1537 123.772 8.06611 123.882 8.01574C124.105 7.87348 123.833 7.91466 124.177 7.92589L123.928 7.4991L123.897 7.45792L123.724 7.25201C123.452 7.84727 123.505 9.07522 123.347 9.91757C123.053 11.374 122.893 12.8538 122.868 14.3389L122.336 14.6197C121.959 14.8556 122.532 14.7133 121.936 14.8443C122.07 14.5453 122.154 14.2267 122.185 13.9009C122.238 13.6435 122.319 13.3925 122.426 13.1522C122.525 12.7778 122.426 13.2158 122.426 12.8227C122.426 12.4296 122.638 11.9916 122.694 11.621C122.722 11.2957 122.774 10.9729 122.849 10.6551C123.071 9.90633 122.917 10.6775 122.966 9.96623L123.392 8.18421L123.015 8.35268C123.015 8.23288 122.702 8.60351 123.056 8.24411L123.083 8.2179L123.328 8.18421L123.498 7.33812C123.264 7.08355 123.799 7.36058 123.298 7.41674C123.222 7.41674 123.2 7.41674 123.17 7.25576C123.309 7.10227 123.29 7.20335 123.437 7.10227C123.584 7.00119 123.437 7.28945 123.581 6.94128C123.636 6.75293 123.658 6.55683 123.649 6.36101C123.728 5.56733 124.026 5.83313 124.301 5.77698C124.558 5.32773 124.418 5.15926 124.101 4.89345C124.146 5.17798 124.131 4.94212 124.101 5.26783C124.101 5.29403 124.052 5.51492 124.041 5.57482C123.924 5.46999 123.63 5.82939 123.886 5.10311C123.965 4.87474 123.977 4.99079 124.143 4.84479L124.188 4.80361C124.201 4.78896 124.215 4.7752 124.229 4.76243C124.509 4.56775 124.433 4.62765 124.739 4.73247C124.702 4.59321 124.684 4.44966 124.686 4.30569C124.686 3.88264 124.656 4.19712 124.739 4.0586C125.025 4.0586 124.988 4.27574 124.991 4.29446L125.048 4.81484C125.169 4.7774 125.546 4.66508 125.293 4.33189L125.07 4.11476C124.867 3.92383 124.674 3.88639 124.286 4.01742L124.195 4.73247C124.133 4.73648 124.07 4.72478 124.012 4.69844C123.955 4.6721 123.906 4.63197 123.868 4.5817C123.831 4.53144 123.806 4.47265 123.798 4.4107C123.789 4.34875 123.796 4.28561 123.818 4.22707C123.89 3.85269 123.95 3.94254 124.165 3.85269C123.856 3.8627 123.548 3.82867 123.249 3.75162C122.973 3.75162 122.77 3.86018 122.494 3.75162C121.951 3.71418 120.028 4.62016 119.447 4.87474C118.494 5.33224 117.578 5.86036 116.705 6.4546C116.284 6.7226 115.882 7.01906 115.502 7.34187C114.684 7.96832 113.908 8.64607 113.178 9.37098C112.786 9.70647 112.419 10.0706 112.081 10.4604" fill="#558A3B"/>
<path fill-rule="evenodd" clip-rule="evenodd" d="M128.574 23.8705C128.473 23.9529 128.718 23.9754 128.427 23.9342L128.623 24.0989C128.579 24.267 128.548 24.4386 128.533 24.6118C128.484 25.2408 128.533 24.5594 128.031 25.1958C128.031 26.6671 124.806 32.7956 125.795 35.0456C126.387 36.4009 128.371 36.8576 130.159 36.3934C131.324 36.0864 133.553 34.7461 133.772 33.9599C132.946 33.8851 131.509 35.9628 129.796 35.6559C128.872 35.4911 129.095 34.1247 129.295 33.4096C130.279 29.898 134.198 22.5003 128.574 23.8668" fill="#145432"/>
<path fill-rule="evenodd" clip-rule="evenodd" d="M125.606 9.38224C125.7 9.43091 125.749 9.51327 126.1 9.19131C126.451 8.86935 125.78 9.56569 126.274 8.97417C126.511 8.69714 126.194 8.87684 126.56 8.7458C126.598 9.49455 126.56 9.19505 126.085 9.52825C125.866 9.68174 125.851 9.69672 125.648 9.62559L125.591 9.59938C125.497 9.56194 125.591 9.53574 125.402 9.54322L125.229 9.80529C125.433 9.88765 125.263 9.77533 125.606 9.67425C125.479 9.94762 125.391 10.2375 125.346 10.5353C125.588 10.4301 125.788 10.2484 125.915 10.0187C126.334 9.40845 126.111 9.60686 126.504 9.46834C126.504 10.2171 126.504 10.0411 126.036 10.3182C125.776 10.4792 125.704 10.6925 125.406 10.8348C125.45 11.0522 125.441 11.2768 125.38 11.49L125.331 11.8419C125.301 12.5232 125.285 12.8826 124.41 13.0099C124.471 12.4746 124.493 12.6655 124.64 12.3473L124.263 12.5981C124.263 13.5827 124.263 13.6202 123.716 13.5603C123.626 13.6443 123.53 13.7231 123.43 13.7961C123.268 13.9122 123.294 13.7961 123.237 13.9983C123.181 14.2004 123.056 14.1593 123.237 14.1668C123.528 14.0994 123.49 14.0582 123.724 13.8672C123.958 13.6763 123.973 13.7624 124.158 13.6763C124.433 13.549 124.365 13.3918 124.637 13.1709C124.799 13.0399 124.95 12.9912 125.119 12.8527C125.523 12.512 126.466 11.7109 127.005 11.5349C126.888 11.8681 126.836 11.9654 126.545 12.1152C125.991 12.4847 125.469 12.8991 124.984 13.3544C124.229 13.9983 124.697 13.3806 123.928 14.2341L122.943 15.1252L123 14.4999L122.958 14.4251C122.947 14.4396 122.938 14.4561 122.932 14.4737L122.902 14.5224L122.724 14.8968C122.679 15.8552 122.377 15.3835 121.94 16.2071L122.86 15.5257C123.237 15.0503 123.86 14.6871 124.316 14.2341C124.693 13.8598 125.142 13.5266 125.482 13.2271C125.689 13.0399 125.859 12.9313 126.055 12.7554C126.311 12.5195 126.319 12.381 126.707 12.2537C126.481 13.1859 126.33 12.834 125.466 13.6277L122.166 16.9596C121.929 17.2216 121.789 17.465 121.597 17.7083C121.974 17.5661 122.408 16.9596 122.728 16.6451C123.049 16.3306 123.03 16.4954 123.301 16.0948C123.453 15.8494 123.656 15.6398 123.897 15.4808C124.302 15.1341 124.68 14.7588 125.029 14.3577C125.346 14.0095 125.832 13.418 126.285 13.2346C126.145 13.7886 126.115 13.6613 125.964 13.7549L125.912 13.7849C125.894 13.7926 125.877 13.8027 125.863 13.8148C125.676 13.9827 125.508 14.1696 125.361 14.3727C125.119 14.6684 124.772 15.2599 124.392 15.4172C123.26 15.8851 124.014 15.4883 123.211 16.2595C122.813 16.6502 122.583 17.179 122.57 17.7345V17.8918C122.685 17.6235 122.822 17.3644 122.977 17.1168C123.123 16.8876 123.291 16.6731 123.479 16.4766C123.686 16.2333 123.739 16.0835 123.98 15.8365C124.174 15.6198 124.444 15.4857 124.735 15.4621C124.682 15.9712 124.584 15.6605 124.184 16.1397L123.807 16.6676C123.596 16.9746 122.992 17.4949 123.053 17.8244L123.249 17.45C123.973 16.4242 124.263 16.4916 125.135 14.9305L125.225 14.7807C125.237 14.7664 125.249 14.7514 125.259 14.7358C125.455 14.4999 125.376 14.5374 125.636 14.4288C125.647 14.6583 125.611 14.8875 125.53 15.1029C125.45 15.3183 125.327 15.5156 125.169 15.683C124.614 16.5028 123.973 17.0494 123.143 18.2137L123.068 18.3186C123.384 18.4384 123.019 18.3186 123.226 18.3186H123.271H123.403C123.452 18.5844 123.237 18.8464 123.026 19.1048C122.815 19.3631 122.649 19.5952 122.464 19.8535C122.558 19.9321 122.423 19.9134 122.574 19.8535C122.83 19.6476 122.675 19.6925 122.981 19.3256C123.06 19.2409 123.129 19.148 123.188 19.0486C123.216 18.9975 123.247 18.9486 123.283 18.9026L123.781 18.1726C124.282 17.48 125.218 15.7354 125.795 15.3797C125.735 15.7849 125.823 16.1979 126.044 16.544C126.206 16.9184 126.3 17.1842 126.421 17.5586C126.624 18.2553 126.774 18.9661 126.87 19.685C127.023 20.4218 127.215 21.1502 127.443 21.8676C127.511 22.066 128.099 23.6721 128.031 23.8181C128.031 23.7058 127.96 23.4849 127.922 23.324L127.598 22.1522C127.36 21.5569 127.654 21.512 127.722 21.4558L128.476 23.5635L126.025 15.4059C126.428 15.9787 128.608 23.1667 128.718 23.5972C128.801 23.4587 128.835 23.4325 128.718 23.0731C128.665 22.8897 128.62 22.7287 128.574 22.5527L127.662 19.408C127.454 18.7266 127.224 18.0865 127.039 17.3939C126.945 17.0494 126.847 16.7424 126.719 16.3943C126.59 16.0461 126.368 15.6156 126.477 15.3647C126.651 16.2632 126.911 16.0835 127.19 17.2815C127.22 17.4126 128.929 23.133 129.216 23.44C129.084 21.8976 127.435 17.5773 126.979 15.9525C126.863 15.5225 126.773 15.0863 126.707 14.646C126.602 14.0207 126.262 13.9384 126.458 13.3656C126.704 13.5228 126.836 14.2903 126.862 14.631C126.876 15.101 126.969 15.5653 127.137 16.0049C127.643 17.8768 128.295 19.1534 128.842 20.9205C128.97 21.3435 129.095 21.7291 129.257 22.1559C129.377 22.5591 129.535 22.9501 129.729 23.324C129.691 22.873 129.595 22.4288 129.442 22.0024C129.396 21.9496 129.357 21.8918 129.325 21.8302L128.97 20.8681C128.563 19.2807 128.276 18.7566 127.88 17.4126C127.595 16.6229 127.365 15.8148 127.19 14.9941C127.047 13.8448 126.436 13.3132 126.639 12.6356C127.039 12.7591 126.854 12.4896 127.017 13.0773C127.394 14.5748 127.56 14.6871 127.884 15.8177C127.933 15.9825 127.975 16.0461 128.046 16.2333C128.163 16.5478 128.193 16.851 128.299 17.2216C128.601 18.3073 128.378 18.0453 129.035 20.0332C129.242 20.1081 128.884 20.1193 129.287 19.861C129.219 19.5128 129.287 19.8198 129.185 19.5502C128.865 18.5469 129.091 18.6892 128.921 18.3111L128.167 15.7429C127.88 14.6459 127.982 15.0203 127.726 14.7059L127.688 14.6609L127.62 14.5636L127.507 14.339L126.858 12.3548C126.858 12.0403 126.896 12.0291 127.096 11.8494L127.62 13.4367C127.884 14.5374 127.824 14.4662 128.159 14.8593L127.232 11.6547C127.204 11.4596 127.229 11.2608 127.303 11.0782C127.862 11.2242 127.68 11.7558 127.929 12.7554L128.854 16.1247C129.071 16.6619 129.225 17.2222 129.314 17.7944C129.583 19.0898 129.974 20.357 130.483 21.5794C130.57 21.351 129.242 16.6189 129.057 15.99L127.888 11.6884C127.748 11.1118 127.413 10.7524 127.846 10.4043L130.841 21.1339C130.879 19.8273 129.581 16.0386 129.25 14.6871C129.17 14.3539 129.091 14.3127 129.019 14.0282C128.948 13.7437 128.974 13.5153 128.891 13.2121C128.827 12.9837 128.748 12.804 128.684 12.5158C128.542 11.7903 128.333 11.0796 128.058 10.3931C128.022 10.337 127.998 10.2742 127.987 10.2087C127.977 10.1432 127.98 10.0761 127.996 10.0117C128.012 9.94733 128.041 9.88687 128.082 9.834C128.122 9.78114 128.173 9.73698 128.231 9.7042C128.286 9.94325 128.322 10.186 128.341 10.4305L128.952 12.381C129.359 13.7849 129.913 16.544 130.381 17.7458C130.668 18.4945 130.913 19.7374 131.241 20.329C131.173 18.8315 128.446 10.3893 128.529 9.35978C128.74 9.4983 128.759 9.53574 128.854 9.87642C128.918 10.116 128.97 10.3594 129.027 10.6252C129.404 12.3286 131.667 19.539 132.195 20.1081C132.097 19.3032 130.049 12.643 129.672 11.5499C129.5 11.0898 129.366 10.6165 129.272 10.1347C129.185 9.65553 128.786 9.01161 128.933 8.70088C129.114 8.74955 129.072 8.56611 129.276 9.26244C129.514 10.0711 129.05 9.63682 129.812 11.4488C130.532 13.1634 131.041 15.1925 131.652 16.9671C131.931 17.7682 132.561 18.9176 132.716 19.6513C132.912 19.277 132.531 18.6293 132.38 18.2062C131.452 15.6156 130.415 12.1264 129.74 9.42716C129.593 8.82442 129.053 8.46502 129.457 8.10562C129.668 8.2404 129.619 8.37143 129.691 8.69713C129.736 8.92176 129.793 9.17633 129.849 9.37101C129.985 9.81651 130.125 10.1946 130.253 10.7038C130.883 13.1971 131.083 13.7325 131.761 16.0499L132.78 18.517C132.818 18.4459 132.836 18.517 132.818 18.2849L132.252 16.4542C132.026 15.7803 131.811 15.0353 131.622 14.3277L130.03 9.14264C129.944 8.82068 129.883 8.55862 129.808 8.20296C129.741 7.90931 129.785 7.60142 129.932 7.33816C129.476 7.4018 129.887 7.28574 129.653 7.50288C129.653 7.50288 129.581 7.59273 129.491 7.67883L128.952 8.26661L128.914 8.30404C128.901 8.31467 128.889 8.32731 128.88 8.34148C128.831 8.40887 128.74 8.67468 128.544 8.78324C128.511 8.67934 128.498 8.57001 128.506 8.46128C128.556 7.881 128.442 8.54364 128.559 8.27035L128.627 8.16178L128.665 8.10188L128.782 7.88848L128.593 8.04198L128.552 8.06444L128.318 8.26661C128.212 8.35599 128.08 8.40972 127.941 8.4201L127.88 8.40138C127.861 8.38756 127.842 8.37255 127.824 8.35645L127.684 8.1206C127.982 7.83233 127.994 8.07193 128.318 7.78366C128.15 7.76193 127.98 7.80479 127.843 7.90346L127.345 8.2067C127.443 7.28574 127.556 8.07193 127.911 7.36062C127.89 7.35902 127.87 7.35902 127.85 7.36062L127.658 7.30821C127.477 7.24456 127.582 7.3082 127.443 7.19964C127.624 6.87393 127.398 7.17717 127.65 7.01245C127.725 6.98837 127.794 6.95301 127.858 6.90762C128.28 6.59689 127.669 7.13974 128.001 6.75039C128.084 6.65305 128.001 6.67177 128.152 6.58566C128.021 6.61596 127.884 6.61515 127.753 6.58329C127.622 6.55142 127.5 6.48939 127.398 6.40222C127.654 6.70921 127.575 6.49956 127.582 7.03117L127.307 7.16594C126.617 7.62642 126.655 7.13974 126.655 7.70504C127.062 7.91095 126.854 7.62642 127.217 7.40554L127.349 7.3681C127.473 7.74248 127.42 7.53283 127.371 7.7013C127.273 8.03075 126.617 8.11311 126.474 8.1805C126.403 8.21585 126.344 8.26921 126.301 8.33504C126.259 8.40087 126.235 8.47677 126.232 8.55488C126.085 8.55488 126.259 8.55487 126.262 8.80196L126.119 8.91801L126.07 8.94796C125.459 9.28865 125.881 8.98166 125.595 9.39347M127.548 9.62184C127.628 9.12392 127.794 9.21752 128.239 9.03782C128.209 9.19595 128.125 9.33905 128.001 9.44328C127.878 9.54751 127.722 9.60656 127.56 9.61061L127.548 9.62184ZM126.673 9.95129C126.726 9.47209 126.843 9.32983 127.217 9.46086C127.217 9.4983 127.383 9.35604 127.217 9.64805C127.069 9.7917 126.886 9.89268 126.685 9.94006L126.673 9.95129ZM125.651 11.1867C125.734 10.7524 125.866 10.599 126.27 10.5166C126.926 10.3781 126.541 10.1984 127.213 10.1422C127.096 10.6401 126.809 10.5166 126.458 10.7038C126.221 10.8161 125.979 11.037 125.663 11.1905L125.651 11.1867ZM125.546 11.4862C125.878 11.3327 126.055 11.2541 126.402 11.0594C126.684 10.8889 126.986 10.7507 127.3 10.6476C127.096 11.3028 126.922 11.2354 126.421 11.5911L125.368 12.2986L125.546 11.4862Z" fill="#126427"/>
<path fill-rule="evenodd" clip-rule="evenodd" d="M132.546 1.10109C133.3 1.3931 133.994 1.92097 134.281 1.99959C134.753 2.16602 135.209 2.3753 135.643 2.62479C136.02 2.81947 135.907 2.651 135.975 3.12646C135.296 3.25749 135.484 3.01788 134.937 2.68844L134.145 2.26914C133.908 2.26914 134.077 2.20924 133.908 2.35524C134.216 2.44581 134.518 2.5597 134.809 2.69592C135.707 3.19384 135.416 2.94301 135.507 3.39226C134.621 3.60191 134.375 2.60233 133.862 2.8307C134.081 2.87625 134.283 2.97682 134.451 3.12271C134.775 3.32487 134.753 3.30616 134.809 3.79284C134.277 3.83028 134.406 3.86397 134.089 3.60191C133.772 3.33985 133.067 3.1564 132.58 2.80075C132.633 2.72962 132.693 2.42638 133.168 2.62105C133.349 2.69593 133.417 2.78578 133.636 2.89809L133.489 2.52372C131.935 2.14934 132.87 2.38894 131.633 1.8723C131.151 1.67014 130.728 1.31449 130.4 1.16099C129.955 0.951342 129.936 1.19468 129.936 1.19468C130.23 1.22412 130.501 1.36655 130.69 1.59152C130.959 1.72791 131.212 1.89232 131.445 2.08195C131.822 2.3515 131.822 2.32529 132.365 2.28037C132.505 2.68095 132.576 2.65474 132.618 2.92803C132.078 2.797 132.418 2.61356 131.901 2.62854C131.916 2.65085 131.935 2.66995 131.958 2.68469L132.071 2.78952C132.637 3.21256 132.093 2.55741 132.674 3.53827C132.674 3.51206 132.693 3.47837 132.701 3.4559L132.723 3.37729L132.829 3.08902L133.236 3.25374C133.383 3.31739 133.493 3.35482 133.613 3.41098C134.515 3.78536 134.27 3.74417 134.368 4.05116C133.368 4.05116 133.417 3.74417 132.769 3.60191C132.953 3.69036 133.128 3.79564 133.293 3.91639C133.753 4.13727 133.67 3.91639 133.825 4.3881C132.927 4.62021 133.206 4.3544 132.965 4.30574C133.259 4.43677 133.255 4.35815 133.123 4.89725C132.746 4.76247 132.931 4.94217 132.821 4.5678C132.816 4.46409 132.829 4.3603 132.859 4.26081C132.482 4.23086 132.346 4.05116 131.961 3.9688C132.003 3.70674 131.961 3.9351 131.875 4.01747C131.875 4.01747 131.818 4.09609 131.807 4.07363C131.795 4.05116 131.758 4.11855 131.731 4.13727C131.667 3.84151 131.769 4.03993 131.547 3.849L131.501 3.81156C131.007 3.43718 131.03 3.83777 130.721 3.63186C130.638 3.5757 130.758 3.51955 130.464 3.34734C130.434 3.34734 130.147 3.22379 130.087 3.19758C130.136 3.5158 130.087 3.28744 130.181 3.54576C130.198 3.52726 130.221 3.51423 130.245 3.50832C130.573 3.46339 130.445 3.58319 130.868 4.02496C131.068 3.98377 130.694 3.65058 131.328 3.84151C131.547 3.90141 131.573 4.06988 131.645 4.21588C131.905 4.17845 131.92 4.06988 132.263 4.15599C132.374 4.17591 132.473 4.23524 132.543 4.32282C132.612 4.41039 132.647 4.52016 132.64 4.63144L132.35 4.71755C132.109 4.71755 132.229 4.56031 131.845 4.54908L132.222 4.75498C132.256 4.75498 132.425 4.81488 132.474 4.83735L132.701 4.96838L132.52 5.13685C132.169 5.36522 132.49 4.98336 132.086 5.39517L132.048 5.44009L132.003 5.48127L131.494 5.96796C131.494 5.96796 131.415 6.00914 131.396 6.02411L131.343 6.05032L130.871 6.4247C130.871 6.4247 130.845 6.45464 130.837 6.47336C130.67 6.52752 130.493 6.54664 130.317 6.52952C130.098 6.49583 130.223 6.36854 129.985 6.55573C130.056 6.60286 130.133 6.63826 130.215 6.66055L130.615 6.71296C130.362 6.61562 130.581 6.71297 130.291 6.9039C130 7.09483 130.06 6.75414 129.966 7.14724C129.928 7.78367 130.585 10.1422 130.777 10.7749L131.758 14.0769C132.15 15.4994 132.668 16.8849 133.304 18.2175L133.478 18.4758C133.361 17.7682 133.067 16.9783 132.878 16.2296C132.776 15.829 132.708 15.4808 132.584 15.1064C132.531 14.9455 132.478 14.7695 132.429 14.5973L132.346 14.2229C132.346 14.0507 132.346 14.1106 132.388 14.0432C132.491 14.2262 132.58 14.4164 132.655 14.6123C132.689 14.7093 132.728 14.8043 132.772 14.8968C132.938 15.215 132.701 14.7995 132.84 15.0128C132.873 15.0799 132.919 15.1397 132.976 15.1888C132.874 14.0357 130.562 7.36438 130.837 6.76163C131.215 7.00498 132.482 12.6917 132.87 13.8748C133.085 14.5374 133.308 15.7653 133.723 16.121L132.557 11.1156C132.425 10.7188 132.365 10.3444 132.233 9.95879L131.505 7.5553C131.422 7.21462 131.128 6.50332 131.128 6.47711L131.396 6.40972C131.648 7.81737 132.437 9.86895 132.904 11.2766C133.282 12.4783 134.085 15.2262 134.73 15.8739C134.666 14.7508 133.998 13.2271 133.674 12.1302L133.297 10.8348C133.063 10.1048 131.641 6.42844 131.754 5.96796C132.082 6.12145 132.131 6.68301 132.263 7.06487L133.53 10.5765C133.825 11.3253 134.1 12.1189 134.417 12.8228C134.734 13.5266 135.171 14.3614 135.424 15.0465C135.469 14.9492 135.48 15.0016 135.469 14.8069C135.455 14.6987 135.425 14.593 135.382 14.4925C134.843 12.995 132.075 6.09525 132.173 5.75831C132.403 5.87062 132.433 6.30115 132.55 6.59691C133.059 8.07569 134.398 12.2125 135.13 12.9912C135.13 12.5495 134.681 11.6023 134.522 11.1194C134.304 10.4904 134.077 9.87643 133.87 9.21753C133.564 8.23667 133.342 7.2633 132.976 6.31238C132.757 5.74333 132.565 6.02412 132.471 5.47004C132.961 5.65723 132.531 5.75831 133.082 5.95673C133.002 5.58235 132.829 5.54117 132.886 5.32029C133.168 5.45881 133.104 6.12145 133.165 6.40972L135.865 13.6876L134.851 9.71171C135.48 10.1048 135.299 11.2092 135.801 11.7371C135.756 10.7674 135.183 9.45338 135.047 8.49124C135.149 8.5736 135.092 8.49124 135.183 8.62227C135.541 9.09024 135.56 9.82402 136.046 10.1198L135.013 7.22211C134.79 6.65681 133.934 4.97587 133.855 4.55282C134.232 4.55282 134.145 4.66888 134.3 5.02828C134.73 6.03909 136.159 9.62934 136.465 10.0187L136.125 8.52119C135.752 7.28159 135.283 6.0725 134.722 4.90474C134.587 4.62396 134.406 4.42554 134.485 4.15599C134.737 4.12604 134.692 4.15599 134.805 4.38436L135.477 5.93427C135.707 6.39849 136.231 7.60772 136.465 7.95215L136.533 7.73126C136.539 7.39938 136.473 7.07008 136.34 6.76537C136.02 5.87062 135.273 4.69883 135.054 3.84526C135.597 3.77413 135.431 4.00249 135.861 4.93468C136.023 5.36108 136.248 5.7611 136.529 6.12145C136.577 5.8788 136.574 5.62878 136.518 5.38759C136.463 5.1464 136.358 4.91941 136.208 4.72129C135.978 4.36428 135.779 3.98857 135.612 3.59817C136.065 3.31739 136.167 3.849 136.307 4.18593L136.571 4.56031C136.529 3.74043 136.514 3.89018 136.22 3.33985L136.423 3.20133C136.514 3.10399 136.559 3.29492 136.533 2.92803C136.533 2.66223 136.344 2.63228 136.129 2.52372C135.863 2.43 135.61 2.30427 135.375 2.14934C135.228 2.02954 135.269 2.10816 135.201 1.89476C135.843 1.89476 136.039 2.32904 136.499 2.39268C136.521 1.78994 135.801 1.56531 135.337 1.34069C134.873 1.11607 134.032 0.846517 133.757 0.651842C134.047 0.472142 135.794 1.40059 136.084 1.6327C136.374 1.86481 135.99 1.74876 136.503 1.90599L136.356 0.78287L136.284 0.76415C136.182 0.737944 136.141 0.764154 136.012 0.704254C135.635 0.584455 135.175 0.0266365 134.756 0.32988C135.234 0.653647 135.738 0.935495 136.265 1.17222C136.163 1.23212 135.028 0.749178 134.756 0.591941C134.164 0.258748 133.508 0.322392 132.761 0.434704C132.953 0.809079 133.425 0.674303 133.659 1.1535C132.957 1.0337 132.263 0.273721 131.656 0.666815L132.105 0.872722C132.282 0.936366 132.429 1.02621 132.584 1.07488" fill="#336626"/>
<path fill-rule="evenodd" clip-rule="evenodd" d="M104.33 45.5394C104.635 48.2012 105.555 49.3506 108.414 49.0623C108.926 48.9969 109.418 48.8219 109.855 48.5494C111.907 47.1118 111.402 42.3385 110.164 41.3277C108.927 40.3169 106.77 40.3768 105.638 41.1106C104.447 41.8893 104.13 44.0532 104.311 45.5394M109.848 45.3485C109.753 47.1193 109.116 48.366 107.207 48.0665C105.669 47.8231 105.499 45.9438 105.589 44.3227C105.691 42.5407 106.385 41.3277 108.264 41.6122C108.513 41.6431 108.751 41.7312 108.96 41.8697C109.169 42.0081 109.342 42.193 109.467 42.4097C109.552 42.5612 109.619 42.722 109.667 42.8889C109.865 43.6928 109.933 44.5233 109.867 45.3485H109.848Z" fill="#0E3B8E"/>
<path fill-rule="evenodd" clip-rule="evenodd" d="M122.468 3.75163C122.762 3.87143 122.966 3.75163 123.222 3.75163C123.521 3.82868 123.83 3.86271 124.139 3.8527C123.924 3.94255 123.863 3.8527 123.792 4.22708C123.77 4.28562 123.763 4.34876 123.771 4.41071C123.78 4.47266 123.804 4.53145 123.842 4.58172C123.879 4.63198 123.929 4.67211 123.986 4.69845C124.043 4.72479 124.106 4.73649 124.169 4.73249L124.259 4.01743C124.637 3.8864 124.84 3.92384 125.044 4.11477L125.267 4.3319C125.519 4.66509 125.142 4.77741 125.021 4.81485L124.965 4.29447C124.965 4.27575 124.999 4.05487 124.712 4.05861C124.629 4.19713 124.656 3.88266 124.659 4.3057C124.657 4.44967 124.675 4.59322 124.712 4.73249C124.407 4.62766 124.482 4.56776 124.203 4.76244C124.188 4.77521 124.174 4.78897 124.161 4.80362L124.116 4.8448C123.95 4.9908 123.939 4.87475 123.86 5.10312C123.603 5.8294 123.897 5.47749 124.014 5.57483C124.014 5.51493 124.071 5.29404 124.075 5.26784C124.12 4.94962 124.135 5.18548 124.075 4.89346C124.391 5.15927 124.531 5.32774 124.275 5.77699C123.992 5.83314 123.701 5.56734 123.622 6.36102C123.632 6.55684 123.609 6.75294 123.554 6.94129C123.407 7.28946 123.528 7.01991 123.411 7.10228C123.294 7.18464 123.283 7.10228 123.143 7.25577C123.173 7.41675 123.196 7.42798 123.271 7.41675C123.773 7.36059 123.237 7.08356 123.471 7.33813L123.301 8.18422L123.056 8.21791L123.03 8.24412C122.675 8.6185 122.973 8.24412 122.988 8.35269L123.366 8.18422L122.939 9.96624C122.89 10.6776 123.045 9.91758 122.822 10.6551C122.747 10.9729 122.695 11.2957 122.668 11.621C122.611 11.9953 122.423 12.4184 122.4 12.8227C122.377 13.227 122.479 12.7965 122.4 13.1522C122.293 13.3925 122.212 13.6435 122.159 13.9009C122.127 14.2267 122.043 14.5453 121.91 14.8443C122.506 14.7133 121.936 14.8443 122.309 14.6197L122.841 14.3389C122.866 12.8538 123.026 11.374 123.32 9.91758C123.49 9.07523 123.437 7.84728 123.697 7.25202L123.871 7.45793L123.901 7.49911L124.15 7.9259C123.807 7.9259 124.078 7.87349 123.856 8.01575C123.746 8.06612 123.658 8.15371 123.607 8.26284C123.701 8.31899 123.694 8.49495 124.014 8.20294C124.173 8.05693 123.946 8.02698 124.305 8.00826L124.384 7.42049C124.761 7.44295 124.663 7.42049 124.848 7.56276H125.093C125.29 7.43604 125.512 7.35218 125.744 7.31669C125.976 7.2812 126.213 7.29489 126.44 7.35685C126.44 7.55527 126.504 7.46916 126.372 7.6264C126.325 7.6797 126.267 7.72163 126.202 7.74891C126.136 7.77619 126.065 7.78807 125.994 7.78364C126.059 7.40926 125.915 7.72748 126.085 7.56276L126.138 7.52532C126.138 7.52532 126.183 7.52532 126.198 7.50285C126.219 7.50162 126.241 7.50162 126.262 7.50285L125.832 7.45419C125.734 7.88472 125.538 7.6264 124.844 8.20294L124.757 8.27032L124.712 8.30776C124.699 8.32241 124.685 8.33617 124.671 8.34895C124.584 8.42387 124.522 8.52266 124.493 8.63269C124.463 8.74271 124.467 8.85899 124.505 8.96666L124.535 9.04528C124.995 8.92548 124.738 8.97789 124.95 8.55111C125.059 8.33022 125.229 8.27033 125.542 8.20294C125.327 8.95169 124.969 8.60726 124.855 8.97789C124.765 9.27365 125.078 9.1576 124.678 9.5432L124.482 10.1085C124.588 10.3406 124.58 10.277 124.527 10.5353L124.301 11.2391C124.678 11.1867 124.678 11.1642 124.78 10.9845C125.006 10.539 124.584 11.0744 124.904 10.6813C125.112 10.423 125.199 10.3855 125.233 9.71916C124.686 9.84645 125.07 9.79777 124.659 10.0299C124.821 9.58812 124.791 9.86142 125.176 9.59561C125.273 9.53584 125.352 9.45009 125.403 9.34815C125.453 9.24621 125.474 9.13218 125.463 9.01907C125.463 9.74536 125.489 9.28862 125.572 9.39345C125.859 8.98164 125.436 9.28862 126.047 8.94794L126.096 8.91799L126.24 8.80194C126.24 8.57357 126.062 8.56608 126.209 8.55485C126.212 8.47675 126.236 8.40084 126.279 8.33501C126.321 8.26918 126.381 8.21583 126.451 8.18048C126.579 8.11309 127.25 8.03072 127.349 7.70127C127.398 7.5328 127.45 7.73497 127.326 7.36808L127.194 7.40552C126.817 7.6264 127.039 7.91093 126.632 7.70502C126.632 7.13971 126.594 7.6264 127.284 7.16592L127.56 7.03115C127.56 6.49953 127.631 6.70919 127.375 6.4022C127.477 6.48937 127.599 6.55139 127.73 6.58326C127.861 6.61513 127.998 6.61594 128.129 6.58564C127.967 6.67174 128.061 6.65303 127.978 6.75036C127.646 7.12474 128.258 6.59687 127.835 6.9076C127.772 6.95299 127.702 6.98835 127.628 7.01242C127.375 7.17715 127.601 6.87391 127.42 7.19961C127.56 7.32316 127.454 7.24454 127.635 7.30818L127.828 7.3606C127.848 7.359 127.868 7.359 127.888 7.3606C127.533 8.07191 127.42 7.28572 127.322 8.20668L127.82 7.90344C127.957 7.80477 128.127 7.76191 128.295 7.78364C127.971 8.0719 127.96 7.83231 127.662 8.12058L127.801 8.35643C127.819 8.37253 127.838 8.38754 127.858 8.40136L127.918 8.42008C128.057 8.40969 128.189 8.35597 128.295 8.26658L128.529 8.06442L128.571 8.04195L128.759 7.88846L128.642 8.10186L128.605 8.16176L128.537 8.27032C128.42 8.54362 128.537 7.89595 128.484 8.46126C128.475 8.56999 128.488 8.67932 128.522 8.78322C128.718 8.67465 128.808 8.40884 128.857 8.34146C128.866 8.32729 128.878 8.31465 128.891 8.30402L128.929 8.26658L129.468 7.67881C129.559 7.59271 129.615 7.51409 129.63 7.50285C129.864 7.28572 129.453 7.40178 129.91 7.33813C129.762 7.6014 129.718 7.90929 129.785 8.20294C129.86 8.57731 129.921 8.82066 130.008 9.14262L131.599 14.3277L131.569 14.0057C131.569 14.0057 131.72 14.1031 131.739 14.1218L130.758 10.8198C130.566 10.1984 129.91 7.82482 129.947 7.19213C129.842 7.13597 129.883 7.1472 129.808 7.16592C130.106 6.95627 129.898 7.19213 130.042 6.85519L129.83 6.72416C129.773 6.65259 129.698 6.59631 129.613 6.56037C129.528 6.52444 129.436 6.50997 129.344 6.51825C129.506 6.68298 129.498 6.43214 129.498 6.43214H129.072C128.872 6.48081 129.072 6.522 128.797 6.51076L128.495 6.46584C128.467 6.46461 128.438 6.45827 128.412 6.44712L128.578 6.39096C128.906 6.24121 128.902 6.53697 128.91 6.06526C128.91 5.65345 129.125 5.77699 128.567 5.77325C128.665 5.35769 128.944 6.0091 129.498 5.85935C129.265 5.6497 129.159 5.63099 129.034 5.43631C129.182 5.22292 128.838 5.40636 129.216 5.30154C129.593 5.19671 129.366 5.30154 129.431 5.34272C129.657 5.49247 129.193 5.54113 129.808 5.53739C129.834 5.54179 129.861 5.54179 129.887 5.53739C129.889 5.50747 129.889 5.47747 129.887 5.44754C129.89 5.41892 129.89 5.39005 129.887 5.36143C129.845 4.87849 130.057 5.73581 129.887 5.2042C129.811 4.98331 129.981 5.00578 129.016 4.94962C128.967 4.85408 128.94 4.7494 128.936 4.64263C128.88 4.79613 128.774 4.83356 128.62 4.64263L128.473 4.3656C128.009 4.40678 128.073 4.48166 127.775 4.65761C127.75 4.66994 127.728 4.68502 127.707 4.70253C127.79 4.79104 127.9 4.85076 128.02 4.87298C128.14 4.8952 128.264 4.87877 128.374 4.82608C128.099 5.16302 128.171 5.00203 128.193 5.42133L127.59 5.31651C127.794 5.17425 127.707 5.49247 127.745 5.06568C127.805 4.36934 127.699 4.7849 127.597 4.65386C127.416 4.83356 127.413 5.35395 127.164 5.20794C127.088 5.13013 127.034 5.0349 127.005 4.9309C126.949 4.71751 126.979 4.49663 126.926 4.36934C126.873 4.24205 126.87 4.26078 126.722 4.20836H126.658C126.587 4.19829 126.517 4.17943 126.451 4.1522C126.409 4.62766 126.308 4.29821 126.357 5.08065C126.119 4.98706 125.855 5.15179 125.73 4.65761C125.84 4.51909 125.798 4.50412 125.927 4.44422L126.172 4.38432H126.228C126.247 4.37913 126.265 4.37157 126.281 4.36185L126.379 4.30944C126.756 4.06984 126.647 4.47416 126.666 3.74788C125.866 3.95753 126.696 4.08107 126.044 4.17092L126.074 3.58315C125.553 3.71044 125.885 3.58316 125.697 3.8265C125.697 3.84896 125.697 3.87142 125.666 3.89388L125.614 4.01743C125.564 4.07358 125.779 4.14097 125.406 4.12225C124.833 4.08856 125.587 3.84522 124.821 3.78532C124.505 3.75911 124.444 3.81152 124.324 3.49705L124.614 3.24248L124.659 3.20504L124.716 3.16011L124.772 3.11518C124.886 3.27242 125.904 3.44838 126.119 3.48956C126.334 3.53074 126.688 3.75162 126.892 3.68423C127.269 3.56444 127.179 3.74039 127.194 3.14888L126.817 3.35104C126.605 3.44089 127.232 3.56818 126.504 3.3735C126.225 3.29863 126.24 3.15262 125.896 3.15637C125.896 3.15637 125.896 3.10395 125.896 3.11518L125.953 2.85687C126.756 2.94672 128.159 3.49331 128.408 3.42966C128.955 3.29489 128.578 3.54572 128.744 3.14888C128.559 2.98041 129.012 2.928 128.367 3.04031C128.175 3.074 128.367 3.11518 128.107 3.18632C127.729 2.94672 127.084 3.0141 127.002 2.43757L127.688 2.61727C128.108 2.71324 128.522 2.83196 128.929 2.97293C129.37 3.07401 129.653 2.70337 129.789 3.47459L129.193 3.1676C129.193 3.7666 129.053 3.54197 129.427 3.64305C129.427 3.66177 129.397 3.66926 129.389 3.69921L129.314 3.85645C129.283 4.02117 129.272 3.60936 129.314 3.93507V4.05112C128.752 4.13348 128.789 4.05112 128.537 3.64305L128.371 3.71793C127.869 3.92758 128.42 3.71793 128.171 3.80029C128.079 3.82266 127.983 3.82266 127.892 3.80029C127.737 3.48956 127.892 3.1077 127.326 3.45587C127.375 3.69921 127.416 3.67675 127.556 3.78532C128.31 4.39555 127.971 3.83399 128.48 4.11851C128.74 4.26452 128.454 4.20836 128.793 4.25703C128.919 4.25279 129.046 4.26031 129.17 4.27949C129.566 4.3656 129.951 4.72125 130.404 4.54904C130.72 4.4255 130.324 4.78864 130.634 4.38432C130.109 4.00994 129.664 4.55278 129.551 4.05112L129.623 3.79281C130.034 4.07359 129.876 3.75162 129.936 4.13348C130.109 3.75911 129.744 4.13349 130.068 4.00994C130.144 3.98736 130.225 3.98409 130.303 4.00044C130.38 4.0168 130.453 4.05224 130.513 4.10354C130.811 4.31319 130.23 4.14846 130.788 4.29821L130.841 4.14471C130.828 4.10067 130.81 4.05804 130.788 4.01743C130.366 3.57567 130.494 3.45587 130.166 3.5008C130.141 3.50671 130.119 3.51974 130.102 3.53823C129.996 3.27991 130.057 3.50828 130.008 3.19006C130.06 3.21627 130.347 3.32484 130.385 3.33981C130.679 3.51202 130.558 3.56818 130.641 3.62433C130.951 3.83024 130.928 3.41843 131.422 3.80404L131.467 3.84147C131.69 4.0324 131.588 3.84147 131.652 4.12974C131.678 4.12974 131.716 4.03989 131.728 4.0661C131.739 4.0923 131.784 4.02118 131.795 4.00994C131.901 3.92758 131.924 3.69921 131.882 3.96127C132.259 4.04364 132.391 4.22334 132.78 4.25329C132.75 4.35277 132.737 4.45656 132.742 4.56027C132.851 4.93464 132.682 4.75495 133.044 4.88972C133.176 4.35062 133.18 4.42924 132.885 4.29821C133.127 4.34688 132.848 4.61268 133.745 4.38057C133.61 3.92384 133.674 4.12974 133.214 3.90886C133.049 3.78811 132.874 3.68283 132.689 3.59439C133.338 3.73665 133.289 4.04364 134.289 4.04364C134.19 3.73665 134.436 3.7928 133.534 3.40345C133.398 3.3473 133.289 3.30986 133.157 3.24622L132.75 3.08149L132.644 3.36976L132.621 3.44838C132.621 3.47085 132.621 3.50453 132.595 3.53074C132.014 2.54988 132.557 3.20503 131.992 2.78199L131.878 2.67717C131.856 2.66242 131.837 2.64332 131.822 2.62101C132.339 2.62101 131.999 2.78948 132.538 2.92051C132.497 2.63599 132.425 2.67342 132.286 2.27284C131.728 2.31777 131.754 2.34397 131.365 2.07442C131.132 1.88479 130.879 1.72039 130.611 1.58399C130.539 1.65138 130.777 1.8236 130.109 1.49415C129.442 1.1647 129.023 0.958787 128.299 1.26203C128.352 1.50537 128.322 1.46419 128.789 1.61394C129.084 1.70379 129.136 1.71128 129.223 1.95463C128.861 1.8918 128.505 1.79658 128.159 1.6701C127.993 1.56444 127.805 1.49831 127.608 1.47688C127.412 1.45545 127.213 1.4793 127.028 1.54656C127.22 2.10438 127.643 1.7038 127.888 2.1493C127.175 2.23541 126.274 1.53158 125.829 2.02201C126.142 2.35895 126.413 2.0894 126.541 2.44131C126.047 2.61353 125.73 2.09314 125.15 2.19423L124.897 2.2691L124.629 2.44131C125.036 2.77451 125.029 2.44131 125.202 2.77825C124.716 2.93549 124.029 2.6884 123.49 2.71086C123.626 3.12268 123.66 2.99913 123.984 3.19006C123.943 3.19006 122.913 3.36602 122.558 3.36976L122.468 3.75163Z" fill="#73A541"/>
<path fill-rule="evenodd" clip-rule="evenodd" d="M42.7108 51.7091C43.3972 52.0834 45.0832 52.0834 45.8111 51.7839C46.7503 51.4096 47.0784 50.4624 47.0935 49.4741V44.0381C47.0671 43.0049 46.8899 43.4054 46.1016 43.4579C45.6904 43.4841 45.1586 43.237 44.5514 43.2632C44.0661 43.2722 43.593 43.4162 43.186 43.6787C42.3449 44.2665 42.1903 45.2024 42.1337 46.2245C41.9074 50.5036 45.83 48.9986 45.8375 48.9986C46.0073 49.8409 45.8602 50.571 45.1775 50.8705C43.9592 51.4133 42.5373 50.1217 42.7032 51.7016M45.8111 48.2236C45.2906 48.291 43.9856 48.6991 43.582 47.5423C43.3482 46.8609 43.3331 45.1687 43.7744 44.6596C43.9163 44.4988 44.0899 44.3687 44.2846 44.2772C44.4792 44.1858 44.6907 44.135 44.9059 44.128C45.1439 44.1447 45.3799 44.1823 45.6112 44.2403C45.879 44.3227 45.8564 44.4911 45.879 44.8393C45.9529 45.9696 45.9328 47.1041 45.8187 48.2311L45.8111 48.2236Z" fill="#0E3B8E"/>
<path fill-rule="evenodd" clip-rule="evenodd" d="M28.2537 40.9121C28.2084 41.2491 29.4455 44.7569 29.6492 45.4046C29.8981 46.1534 30.0754 46.8684 30.3281 47.6321C30.8335 49.1296 30.5129 49.1783 31.6708 49.1558C32.3347 49.1558 32.4818 49.3917 32.6779 48.7178C33.0551 47.3439 35.0088 41.279 34.9409 40.8559C34.5638 40.8223 33.9452 40.7511 33.6397 40.972C33.5152 41.2678 33.2625 42.4059 33.172 42.8102L32.1951 46.3817C32.0292 46.9321 31.8896 47.8979 31.5992 48.029C31.5388 47.8942 29.7548 41.4213 29.5021 40.8634C29.0912 40.78 28.6663 40.7928 28.2612 40.9009" fill="#0E3B8E"/>
<path fill-rule="evenodd" clip-rule="evenodd" d="M66.0616 47.5573C65.6467 47.5573 63.3912 48.6804 62.2144 47.4412C61.4601 46.655 61.2639 44.6409 61.6826 43.3231C61.8976 42.6342 62.1616 42.1401 62.7161 41.8443C63.0388 41.6959 63.3878 41.6123 63.7431 41.5981C64.0985 41.584 64.4531 41.6397 64.7867 41.762C65.3186 41.9978 65.3864 42.2112 65.6052 42.2449C65.7702 42.2478 65.9304 42.1896 66.0546 42.0816C66.1787 41.9736 66.2578 41.8236 66.2766 41.6609C66.2766 41.2079 65.2243 40.7886 64.7905 40.695C63.2554 40.3693 61.8297 40.7175 61.0867 41.6459C60.2531 42.6941 60.1136 44.0718 60.2493 45.764C60.6265 50.3202 65.4393 49.1109 66.2539 48.5606C66.2915 48.217 66.2245 47.8702 66.0616 47.5648" fill="#0E3B8E"/>
<path fill-rule="evenodd" clip-rule="evenodd" d="M67.3024 46.9733C67.4533 48.7553 68.879 49.3356 70.697 49.0248C71.0479 48.9834 71.3815 48.8503 71.6638 48.6392C71.946 48.4281 72.1669 48.1465 72.3037 47.8231C72.596 47.0023 72.6751 46.1216 72.5338 45.2624C72.3641 44.2703 72.1567 43.8248 71.5192 43.4467C70.7817 43.1038 69.9526 43.0054 69.1543 43.1659C67.2685 43.4392 67.1855 45.4121 67.3175 46.9733M69.8295 43.9783C70.0477 43.954 70.2686 43.9829 70.473 44.0625C70.6774 44.1421 70.8591 44.2699 71.0025 44.435C71.2319 44.8759 71.351 45.3651 71.3495 45.8614C71.3834 46.9545 71.2401 48.0365 70.1086 48.175C68.8036 48.3397 68.4905 47.4749 68.4981 46.2432C68.4905 45.1351 68.6074 44.1655 69.8144 43.9633L69.8295 43.9783Z" fill="#0E3B8E"/>
<path fill-rule="evenodd" clip-rule="evenodd" d="M78.5611 46.8497C78.7195 48.628 80.0094 49.388 81.8538 49.0548C83.6982 48.7216 83.9622 47.1605 83.8226 45.4121C83.668 43.4429 82.4648 42.9076 80.4771 43.1659C78.6818 43.4167 78.4064 45.1164 78.5611 46.831M82.578 46.5802C82.3743 48.8526 80.3828 48.2087 80.1301 47.8081C79.5643 46.9134 79.685 44.7495 80.2734 44.2553C80.5525 44.0195 82.0952 43.398 82.5138 44.9442C82.6187 45.4894 82.6403 46.0472 82.578 46.5989V46.5802Z" fill="#0E3B8E"/>
<path fill-rule="evenodd" clip-rule="evenodd" d="M91.053 43.2631C90.9172 43.6038 91.0002 45.5805 91.0002 46.1009C91.0002 46.8496 90.9399 48.1038 91.3774 48.5942C91.8149 49.0847 92.8861 49.2269 93.6744 48.9985C94.0515 48.8937 94.3608 48.553 94.7267 48.7889C94.8681 48.9084 95.0382 48.9898 95.2205 49.0252C95.4028 49.0606 95.5913 49.0489 95.7677 48.9911L95.7073 44.6633C95.7073 43.8883 96.0845 42.8214 94.5155 43.2444C94.3948 43.8958 94.4853 45.5356 94.4853 46.2881C94.4853 47.4636 94.6701 48.0514 93.3538 48.1188C92.1657 48.1787 92.2637 47.2876 92.2713 46.2244C92.2713 45.6703 92.3392 43.63 92.1958 43.2556C91.8229 43.1762 91.4372 43.1762 91.0643 43.2556" fill="#0E3B8E"/>
<path fill-rule="evenodd" clip-rule="evenodd" d="M51.0538 43.4242C51.0198 43.9895 51.1104 44.5773 51.1066 45.1613V48.7253C51.1066 49.0997 51.1518 49.1372 51.5064 49.1596C52.6719 49.2308 52.3249 49.2944 52.3399 46.101C52.3399 44.7719 52.14 44.4949 53.4715 44.274C54.603 44.0868 54.6671 45.0602 54.6596 46.0373C54.6064 47.025 54.6064 48.0147 54.6596 49.0024C54.8896 49.2083 55.4139 49.1933 55.7684 49.1596C55.9382 48.658 55.8929 44.9853 55.7307 44.3152C55.2819 42.4433 52.5625 43.6488 52.2079 43.6788C52.0721 43.5066 52.0571 43.4242 51.7515 43.3905C51.518 43.3506 51.2785 43.3621 51.05 43.4242" fill="#0E3B8E"/>
<path fill-rule="evenodd" clip-rule="evenodd" d="M84.9241 43.252C84.9023 43.7231 84.92 44.1952 84.9769 44.6634C85.0071 45.7041 84.9166 48.3023 85.0561 48.9425C85.4333 49.0735 86.165 49.2083 86.1877 48.6654V47.5423C86.2065 45.2399 85.8105 44.2441 87.2928 44.113C87.8774 44.0606 88.1603 44.0681 88.364 44.5473C88.7411 45.4271 88.3225 47.8268 88.5563 48.9125C88.7864 48.9874 89.5785 49.1858 89.6878 48.8676L89.7142 46.6026C89.7142 44.2516 90.0084 42.2486 86.2631 43.5103C86.0761 43.3589 85.8539 43.2564 85.6167 43.2119C85.3796 43.1675 85.1351 43.1825 84.9053 43.2557" fill="#0E3B8E"/>
<path fill-rule="evenodd" clip-rule="evenodd" d="M97.4462 43.2146C96.9596 43.4617 96.2769 42.9001 96.6126 44.1505C96.8441 44.1914 97.0797 44.204 97.3142 44.188C97.9516 44.2703 97.0728 47.8269 97.8686 48.5981C98.5928 49.2944 100.2 49.1072 100.599 48.8864C100.724 48.7802 100.803 48.6312 100.821 48.4694C100.84 48.3075 100.795 48.1448 100.697 48.0141C100.105 47.8007 98.8983 48.8601 98.7587 47.168C98.6917 46.1704 98.7005 45.1692 98.7851 44.173C99.3132 44.0794 100.139 44.3302 100.573 44.1131C100.659 43.9936 100.708 43.8524 100.716 43.7059C100.724 43.5594 100.69 43.4137 100.618 43.2857C100.366 43.1135 99.1585 43.2108 98.755 43.1734L98.7022 41.9754C98.4851 41.9299 98.2615 41.9235 98.0421 41.9567C97.0841 42.0615 97.7102 42.507 97.4462 43.2108" fill="#0E3B8E"/>
<path fill-rule="evenodd" clip-rule="evenodd" d="M77.8897 47.9766C77.4862 47.7969 75.8342 48.6654 75.1364 47.7819C74.631 47.138 74.5065 45.7378 74.9025 44.8581C74.9749 44.6508 75.1008 44.4661 75.2675 44.3222C75.4343 44.1784 75.6362 44.0804 75.853 44.0382C76.0935 43.9733 76.346 43.966 76.5899 44.0167C76.8338 44.0675 77.0621 44.1749 77.2561 44.3302C77.8558 44.6784 78.0896 43.7312 77.8558 43.5141C77.4296 43.1397 72.8847 41.9791 73.4844 46.9358C73.7559 49.1821 75.8832 49.5115 77.8897 48.7328C77.96 48.4881 77.96 48.2288 77.8897 47.9841" fill="#0E3B8E"/>
<path fill-rule="evenodd" clip-rule="evenodd" d="M115.098 40.4479C115.026 40.8635 115.049 44.9105 115.056 45.663C115.056 47.2915 114.706 49.3655 116.791 49.0323C116.871 48.892 116.907 48.7311 116.895 48.5703C116.882 48.4096 116.821 48.2562 116.72 48.1301C116.343 47.8531 116.343 48.1825 116.297 47.4038C116.252 46.6251 116.263 45.8389 116.26 45.0527C116.256 44.2666 116.358 40.8223 116.218 40.3468C116.03 40.2645 116.18 40.2907 115.924 40.3206L115.098 40.4479Z" fill="#0E3B8E"/>
<path fill-rule="evenodd" clip-rule="evenodd" d="M39.2973 43.3868C39.0168 43.3513 38.7329 43.3513 38.4525 43.3868C38.1847 43.4429 38.2601 43.7125 38.2903 44.0045C38.4864 45.8764 38.2526 48.0477 38.4185 49.1184C38.8117 49.2138 39.2214 49.2215 39.6179 49.1409C39.765 48.4595 39.667 46.4342 39.6783 45.6068C39.6783 44.8581 39.7348 44.7607 40.2968 44.4837C40.9871 44.1355 41.0512 44.3863 41.666 44.4051C41.8244 44.1917 42.0771 43.7162 41.8621 43.3493C41.5868 43.106 40.2855 43.3493 39.9347 43.6638C39.7801 43.8023 39.7839 43.9109 39.5161 43.9745L39.2973 43.3868Z" fill="#0E3B8E"/>
<path fill-rule="evenodd" clip-rule="evenodd" d="M122.589 19.8461C122.502 20.0595 122.453 20.1418 122.374 20.3814C122.596 20.2429 122.46 20.3328 122.653 20.1231C122.845 19.9135 122.736 20.067 122.883 19.8685C122.975 19.6946 123.081 19.5281 123.2 19.3706L124.621 17.3602C124.82 16.9978 125.04 16.6466 125.278 16.3083C125.708 15.7242 125.308 16.0312 125.655 15.8103C125.791 16.136 126.032 16.9896 126.198 17.4726C126.285 17.7234 126.368 18.0828 126.424 18.2924C126.528 18.5422 126.563 18.8147 126.526 19.0824C126.413 18.5882 126.372 18.3823 126.081 18.1202C126.119 18.5332 126.259 18.9304 126.488 19.277C126.488 19.277 126.541 19.3557 126.553 19.3781C126.774 19.9522 126.918 20.5526 126.983 21.1639C127.096 21.834 127.812 23.938 127.756 24.1402C127.477 23.2192 127.103 22.0699 126.892 21.1639C126.783 20.6243 126.646 20.0907 126.481 19.5653C126.307 19.0786 125.927 18.7567 125.877 18.1801C125.659 18.401 125.595 17.8394 125.764 18.6107C126.108 19.4636 126.392 20.3392 126.613 21.2313L127.537 24.4621C127.062 23.7583 126.432 20.6323 126.141 19.8423C125.93 19.2658 125.945 19.6552 125.53 18.4572L125.478 18.5021C125.391 18.9064 125.478 18.9401 125.621 19.2808C125.757 19.5527 125.852 19.8428 125.904 20.1418L125.794 20.0333C125.755 19.9895 125.722 19.9403 125.696 19.8873L125.651 19.7824V19.7487L125.595 19.6739C125.52 19.5773 125.452 19.476 125.391 19.3706L125.214 19.0599C125.085 19.584 125.044 19.3931 124.874 19.7263L123.69 22.74C123.498 23.3465 123.841 22.7063 123.596 23.4026C123.586 23.4219 123.579 23.442 123.573 23.4625C123.433 23.8669 123.045 24.7579 123.173 25.0162C123.328 24.7504 124.135 22.4742 124.406 22.0474C124.599 21.7404 124.425 21.8677 124.723 21.4035L124.84 21.1077C124.851 20.9948 124.872 20.8832 124.904 20.7745C124.931 20.797 124.957 20.8007 124.968 20.8569C125.002 21.0403 125.055 20.6884 125.1 21.4259L125.176 22.0774L125.24 21.8565C125.214 22.5416 125.847 24.7766 126.104 25.6002C126.481 25.2558 125.968 24.0466 125.787 23.3203C125.263 21.2313 125.632 21.5682 125.527 20.958C125.529 21.73 125.642 22.4977 125.862 23.2379C126.032 23.908 126.364 24.7354 126.485 25.3307C126.737 25.0199 126.53 24.6306 126.417 24.2075L126.141 23.1368C126.323 23.3952 126.187 23.2267 126.379 23.3727C126.281 22.6239 126.157 22.6239 126.134 22.6239L126.3 22.594C126.324 23.0395 126.421 23.4782 126.587 23.8931L126.922 25.0761C127.447 24.8927 127.077 25.0424 127.386 24.7466C127.399 24.7587 127.408 24.7743 127.413 24.7916C127.425 24.8221 127.443 24.85 127.465 24.8739C127.563 25.0125 127.284 24.814 127.582 25.0125C127.775 24.9825 127.733 24.96 128.058 24.7242L128.163 24.6531C128.163 24.6531 128.163 24.6531 128.163 24.6755C128.111 24.7506 128.076 24.836 128.06 24.9258C128.045 25.0157 128.049 25.1078 128.073 25.1959C128.578 24.5595 128.525 25.2408 128.574 24.6119C128.59 24.4386 128.62 24.2671 128.665 24.099L128.469 23.9343C128.759 23.9754 128.514 23.9343 128.616 23.8706L128.537 23.5561L127.782 21.4484C127.714 21.5046 127.405 21.5495 127.658 22.1447L127.982 23.3165C128.02 23.4775 128.076 23.6909 128.091 23.8107C128.159 23.6647 127.571 22.0586 127.503 21.8602C127.275 21.1428 127.083 20.4144 126.93 19.6776C126.834 18.9587 126.684 18.2479 126.481 17.5512C126.349 17.1768 126.255 16.911 126.104 16.5366C125.883 16.1905 125.795 15.7775 125.855 15.3723C125.278 15.728 124.346 17.4726 123.841 18.1651L123.343 18.8952C123.307 18.9412 123.276 18.99 123.249 19.0412C123.19 19.1406 123.12 19.2335 123.041 19.3182C122.736 19.6926 122.89 19.6402 122.634 19.8461" fill="#9CB18C"/>
<path fill-rule="evenodd" clip-rule="evenodd" d="M104.775 20.6884C104.858 20.9954 104.733 20.9131 104.918 20.6884L105.589 18.9588C105.77 18.5171 105.65 18.4384 105.759 18.1277C105.789 18.0416 106.472 17.2779 106.6 17.1019C106.668 17.0046 106.736 16.8923 106.804 16.8099C106.973 16.604 106.887 16.75 107.049 16.5815C107.264 16.3532 107.143 16.3232 107.471 16.0761C107.403 16.6789 107.204 16.6489 107.053 16.8249C106.838 17.0795 106.853 17.4464 106.751 17.7496C106.502 18.3649 106.297 18.9966 106.136 19.6402C106.227 19.2995 106.306 19.2658 106.513 19.1685C106.317 20.1493 105.51 21.6506 105.672 21.9351C105.702 21.5607 106.166 20.7745 106.298 20.374C106.562 19.5466 107.611 15.7766 108.079 15.421C107.817 16.4669 107.502 17.499 107.136 18.5133C106.763 19.5478 106.477 20.6108 106.279 21.6918C106.494 21.3174 108.022 16.5479 108.109 15.9975C108.199 16.1173 108.286 15.889 108.211 16.443L107.833 17.5961C107.554 18.532 106.589 21.6693 106.581 22.2646C106.804 21.995 107.675 18.8578 107.864 18.2026C108.18 17.0795 108.467 16.2521 108.708 15.0766C108.807 14.6198 108.78 14.3278 109.206 14.1519C108.973 15.7242 107.188 20.49 107.117 22.1148C107.4 21.399 107.63 20.6632 107.803 19.9135L109.418 14.3278C109.534 13.7064 109.467 13.7064 109.859 13.3732L108.158 19.8012C108.067 20.1755 107.981 20.5499 107.879 20.9243L107.743 22.0661L110.006 13.8524C110.138 13.3207 110.036 13.0063 110.425 12.7592C110.383 13.4256 109.497 16.458 109.293 17.3715C109.116 18.1202 108.916 18.9214 108.72 19.7001C108.493 20.4531 108.308 21.218 108.165 21.9913C108.512 21.4896 109.538 17.5662 109.674 16.8361C109.697 16.4617 110.372 14.0021 110.549 13.1972C110.745 12.28 110.53 12.4485 111.005 12.0741C111.187 12.4073 111.024 12.718 110.922 13.1373C110.873 13.332 110.798 13.5604 110.775 13.6502V14.1107C110.904 13.5603 111.002 13.1635 111.13 12.6618C111.368 11.7222 111.232 11.505 111.696 11.3478C111.858 11.6061 111.443 12.7704 111.319 13.0213C111.098 13.5094 110.906 14.0093 110.741 14.5188C110.553 15.2675 109.825 17.233 110.051 17.9705C110.293 17.6672 110.511 16.4093 110.625 15.99L111.662 12.4185C111.726 12.1789 111.865 11.7671 111.914 11.5238C112.062 10.775 111.831 11.1082 112.352 10.7114C112.258 10.3931 112.352 10.498 112.043 10.4568L105.08 18.4909C104.733 19.0262 104.009 20.2542 103.896 20.8831L104.243 20.2766C104.327 20.0619 104.425 19.853 104.537 19.6514C104.575 19.73 104.575 19.6215 104.571 19.8311C104.571 19.8498 104.529 20.0707 104.526 20.0782C104.323 20.5587 104.146 21.0498 103.998 21.5495C104.726 20.5949 104.929 18.7978 105.506 18.4647L104.775 20.6884Z" fill="#336626"/>
<path fill-rule="evenodd" clip-rule="evenodd" d="M35.8123 43.4166C35.6841 44.1841 35.7783 46.0373 35.7859 46.9133C35.7859 48.7852 35.5407 49.1034 36.1631 49.1595C36.4306 49.214 36.7065 49.214 36.974 49.1595C37.0607 48.6916 37.0306 43.6824 36.9174 43.3942L35.8123 43.4166Z" fill="#0E3B8E"/>
<path fill-rule="evenodd" clip-rule="evenodd" d="M113.62 48.9723C113.691 48.5792 113.669 44.7045 113.672 43.7311C113.672 43.3305 113.699 43.2481 113.325 43.207C112.341 43.0946 112.435 43.323 112.431 43.922C112.431 44.7307 112.364 48.7889 112.522 48.9461C112.879 49.0465 113.256 49.0594 113.62 48.9836" fill="#0E3B8E"/>
<path fill-rule="evenodd" clip-rule="evenodd" d="M113.619 42.2188C113.674 41.925 113.692 41.6258 113.672 41.3278C113.672 41.2604 113.699 41.2454 113.325 41.2379C112.341 41.2192 112.435 41.2566 112.431 41.3614C112.427 41.4663 112.363 42.1888 112.522 42.2113C112.805 42.23 113.325 42.23 113.619 42.2113" fill="#0E3B8E"/>
<path fill-rule="evenodd" clip-rule="evenodd" d="M49.5941 49.1484C49.7865 48.774 49.7148 44.757 49.6922 43.8472C49.6922 43.398 49.7337 43.3418 49.315 43.3568L48.9378 43.3755L48.5607 43.4541C48.4023 43.8847 48.5003 45.6704 48.4965 46.2882C48.4965 49.242 48.2174 49.2832 49.6017 49.1484" fill="#0E3B8E"/>
<path fill-rule="evenodd" clip-rule="evenodd" d="M112.363 10.7151C111.843 11.1119 112.073 10.775 111.926 11.5275C111.877 11.7708 111.737 12.1826 111.673 12.4222L110.647 15.9938C110.534 16.4131 110.315 17.671 110.074 17.9742C109.848 17.2255 110.576 15.2637 110.764 14.5225C110.928 14.0131 111.121 13.5131 111.341 13.025C111.447 12.7742 111.862 11.6098 111.718 11.3515C111.255 11.5088 111.39 11.7259 111.153 12.6656C111.024 13.1673 110.926 13.5641 110.798 14.1144V13.6539C110.821 13.5641 110.896 13.3357 110.945 13.141C111.047 12.7217 111.209 12.3923 111.028 12.0778C110.553 12.4522 110.768 12.295 110.572 13.2009C110.395 14.0058 109.719 16.458 109.697 16.8399C109.84 17.1356 109.421 18.7941 109.32 19.1909C109.218 19.5878 109.127 19.9809 109.029 20.4039L108.958 21.6843C109.097 20.9542 110.002 18.255 109.863 18.0491C109.9 18.716 109.817 19.3841 109.618 20.022C109.553 20.2879 109.474 20.6323 109.387 20.9617C109.357 21.0853 109.297 21.2799 109.259 21.4222C109.225 21.5084 109.211 21.6015 109.219 21.6939C109.228 21.7863 109.258 21.8753 109.308 21.9538C109.734 21.3548 110.183 18.708 110.481 18.3898C110.417 19.4755 109.942 20.4675 109.851 21.5158C110.168 21.235 110.229 20.827 110.383 20.2953C110.5 19.8611 110.602 19.4829 110.715 19.0487C110.9 18.3486 111.145 17.3453 111.402 16.6826L111.217 17.7196C111.488 17.9855 111.398 18.2026 111.217 18.7866C111.433 18.033 111.6 17.2664 111.718 16.4917C112.001 15.26 111.967 14.2829 112.122 13.7026C112.243 13.2459 112.163 13.5978 112.348 13.2571L112.982 11.1344C113.127 10.756 113.223 10.3611 113.269 9.95886C112.891 10.0188 112.967 9.92891 112.801 10.2247L112.288 12.3698C112.261 12.6661 112.193 12.9572 112.084 13.2346L111.398 15.7467C111.239 16.3682 111.353 16.5479 111.149 16.6864C111.017 16.78 110.56 17.349 110.73 16.4992C110.84 15.9339 111.353 14.53 111.515 13.7775C111.678 13.2951 111.867 12.8215 112.081 12.3586C112.195 11.831 112.343 11.3109 112.522 10.8012C112.443 10.6589 112.692 10.5616 112.394 10.7001" fill="#98B067"/>
<path fill-rule="evenodd" clip-rule="evenodd" d="M128.989 4.60529C129.781 4.38441 129.453 4.77376 129.808 4.87109C130.332 5.01336 130.404 4.30953 130.619 5.08074C130.34 5.30911 130.313 5.1968 130.004 5.05454V5.42891C130.034 5.42891 130.072 5.40271 130.087 5.42891C130.102 5.45512 130.143 5.42891 130.162 5.42891L130.57 5.54497C130.57 5.54497 130.668 5.65354 130.69 5.67225C130.547 6.13274 130.468 5.83323 130.109 6.11027L130 6.22633C130.883 5.99048 130.822 6.46967 130.845 6.5146C130.845 6.5146 130.871 6.45096 130.879 6.46593L131.35 6.09156L131.403 6.06535C131.422 6.06535 131.482 6.02043 131.501 6.00919L132.01 5.52251L132.056 5.48133L132.093 5.4364C132.497 5.02459 132.176 5.40645 132.527 5.17808L132.708 5.00962L132.482 4.87858C132.433 4.85612 132.263 4.80745 132.229 4.79622L131.852 4.59031C132.229 4.59031 132.116 4.7513 132.357 4.75878L132.648 4.67267C132.654 4.56139 132.619 4.45163 132.55 4.36405C132.481 4.27648 132.381 4.21714 132.271 4.19722C131.927 4.11112 131.912 4.21968 131.652 4.25712C131.58 4.09988 131.554 3.93141 131.335 3.88274C130.702 3.70679 131.075 4.02501 130.875 4.06619C130.897 4.1068 130.915 4.14944 130.928 4.19348L130.875 4.34697C130.317 4.19722 130.898 4.34697 130.6 4.15229C130.539 4.101 130.467 4.06555 130.389 4.0492C130.312 4.03285 130.231 4.03612 130.155 4.0587C129.83 4.17101 130.196 3.7929 130.023 4.18224C129.962 3.80787 130.121 4.12234 129.71 3.84156L129.638 4.09988C129.751 4.60154 130.196 4.06619 130.721 4.43308C130.411 4.8374 130.807 4.47426 130.49 4.5978C130.038 4.77001 129.653 4.41436 129.257 4.32825C129.132 4.30907 129.006 4.30155 128.88 4.30579C128.54 4.25712 128.827 4.30579 128.567 4.16727C128.058 3.88275 128.393 4.44431 127.643 3.83408C127.503 3.72551 127.462 3.74797 127.413 3.50463C127.975 3.15646 127.824 3.53832 127.978 3.84905C128.07 3.87142 128.166 3.87142 128.258 3.84905C128.507 3.77418 127.956 3.97634 128.457 3.76669L128.623 3.69181C128.876 4.10363 128.838 4.18224 129.4 4.09988V3.98383C129.344 3.65812 129.355 4.06993 129.4 3.90521L129.476 3.74797C129.476 3.71802 129.502 3.71053 129.514 3.69181C129.136 3.59822 129.299 3.81536 129.28 3.21636L129.876 3.52335C129.74 2.75214 129.457 3.12276 129.016 3.02168C128.609 2.88072 128.195 2.76199 127.775 2.66603L127.088 2.48633C127.171 3.05163 127.843 2.98425 128.193 3.23508C128.465 3.16395 128.261 3.12277 128.454 3.08907C129.08 2.97676 128.627 3.02917 128.831 3.19764C128.665 3.59447 129.042 3.34364 128.495 3.47842C128.246 3.54206 126.843 2.99548 126.04 2.90563L125.983 3.16395C125.983 3.16395 125.983 3.1939 125.983 3.20513C126.326 3.20513 126.311 3.34739 126.59 3.42226C127.318 3.61694 126.692 3.48965 126.904 3.3998L127.281 3.19764C127.281 3.78915 127.36 3.6132 126.979 3.733C126.775 3.80038 126.458 3.59448 126.206 3.53832C125.953 3.48216 124.972 3.30995 124.859 3.16395L124.803 3.20887L124.746 3.2538L124.701 3.29123L124.41 3.54581C124.527 3.86028 124.591 3.80787 124.908 3.83408C125.663 3.89398 124.908 4.13732 125.493 4.17101C125.87 4.18973 125.651 4.12235 125.7 4.06619L125.753 3.94265C125.753 3.92018 125.753 3.89772 125.783 3.87526C125.957 3.62443 125.625 3.7592 126.16 3.63191L126.13 4.21968C126.783 4.12983 125.953 4.00629 126.753 3.79664C126.734 4.52293 126.832 4.1186 126.466 4.3582L126.368 4.41061C126.351 4.42033 126.334 4.42788 126.315 4.43308H126.259L126.013 4.49298C125.885 4.55288 125.927 4.56785 125.817 4.70637C125.942 5.20054 126.194 5.03582 126.443 5.12941C126.394 4.34697 126.496 4.67642 126.538 4.20096C126.604 4.22819 126.674 4.24705 126.745 4.25712H126.809C126.956 4.30953 126.934 4.23466 127.013 4.4181C127.092 4.60155 127.036 4.76627 127.092 4.97966C127.121 5.08366 127.175 5.17888 127.251 5.2567C127.499 5.4027 127.503 4.88233 127.684 4.70263C127.786 4.83366 127.892 4.4181 127.831 5.11444C127.794 5.54123 127.88 5.22301 127.677 5.36527L128.28 5.47009C128.258 5.05079 128.186 5.21178 128.461 4.87484C128.353 4.90783 128.236 4.908 128.128 4.87534C128.019 4.84267 127.922 4.77865 127.85 4.69139C127.871 4.67388 127.894 4.6588 127.918 4.64647C128.216 4.47052 128.152 4.39564 128.616 4.35446L128.763 4.63149C128.918 4.82991 129.023 4.79247 129.08 4.63149" fill="#4C7125"/>
<path fill-rule="evenodd" clip-rule="evenodd" d="M129.476 21.9838C129.608 21.849 129.442 21.9538 129.687 21.9126L130.034 22.6913V22.2121C130 21.9913 129.962 21.7816 129.928 21.5308C129.774 20.3066 129.219 18.7567 129.197 17.6335C129.133 17.948 129.197 17.6934 129.302 17.8058C129.214 17.2335 129.06 16.6733 128.842 16.136L127.918 12.7667C127.662 11.7671 127.85 11.2355 127.292 11.0895C127.218 11.2721 127.193 11.4709 127.22 11.666L128.148 14.8707C127.812 14.4776 127.873 14.5487 127.609 13.448L127.134 11.8307C126.934 12.0104 126.896 12.0217 126.896 12.3361L127.545 14.3203L127.658 14.5449L127.726 14.6423L127.763 14.6872C128.02 15.0017 127.918 14.6273 128.205 15.7242L128.959 18.2924C129.129 18.6668 128.903 18.5283 129.223 19.5316C129.31 19.8012 129.257 19.4942 129.325 19.8423C128.921 20.1007 129.28 20.0894 129.072 20.0146C128.416 18.0266 128.639 18.2887 128.337 17.203C128.231 16.8286 128.201 16.5291 128.084 16.2147C128.012 16.0275 127.971 15.9638 127.922 15.7991C127.597 14.676 127.424 14.5637 127.054 13.0587C126.907 12.4709 127.092 12.7405 126.677 12.6169C126.477 13.2945 127.085 13.8261 127.228 14.9755C127.403 15.7962 127.633 16.6042 127.918 17.3939C128.314 18.7379 128.601 19.2658 129.008 20.8494L129.363 21.8116C129.395 21.8732 129.434 21.9309 129.48 21.9838" fill="#9DC668"/>
<path fill-rule="evenodd" clip-rule="evenodd" d="M129.917 1.20959C129.917 1.20959 129.917 0.966249 130.381 1.1759C130.709 1.32939 131.135 1.68505 131.614 1.88721C132.851 2.40385 131.916 2.15302 133.47 2.53862L133.617 2.913C133.398 2.80068 133.33 2.71083 133.149 2.63596C132.674 2.43754 132.614 2.74453 132.561 2.81566C133.066 3.17132 133.753 3.34353 134.07 3.61682C134.387 3.89012 134.258 3.84519 134.79 3.80775C134.734 3.32106 134.756 3.33979 134.432 3.13762C134.264 2.99173 134.062 2.89116 133.843 2.84561C134.337 2.61724 134.598 3.61682 135.488 3.40717C135.397 2.95792 135.688 3.20876 134.79 2.71084C134.499 2.57461 134.197 2.46072 133.889 2.37015C134.058 2.22415 133.889 2.26908 134.126 2.28405L134.918 2.70335C135.465 3.0328 135.296 3.2724 135.956 3.14137C135.888 2.66591 135.993 2.83438 135.624 2.6397C135.19 2.39022 134.734 2.18093 134.262 2.0145C133.975 1.93588 133.263 1.40801 132.527 1.116C132.331 1.49037 131.463 0.741623 131.396 0.741623C130.824 0.687633 130.249 0.798112 129.74 1.05984C129.793 1.35934 129.645 1.16092 129.917 1.23954" fill="#7EAB5D"/>
<path fill-rule="evenodd" clip-rule="evenodd" d="M122.883 19.8686H122.955C123.192 19.891 123.151 19.9996 123.332 19.6439C123.377 19.5494 123.429 19.4581 123.486 19.3706L125.112 16.75C125.327 16.4168 125.335 16.3307 125.557 16.2109C125.723 16.473 125.753 15.8365 125.655 16.5853C125.583 17.1356 125.689 16.4842 125.097 17.4426L123.268 20.7334C123.279 20.7167 123.289 20.6992 123.298 20.681L123.633 20.0258C123.724 19.8611 123.814 19.7038 123.89 19.5503L124.022 19.2696C124.079 19.1647 124.128 19.0974 124.177 19.0113L124.765 18.0491C125.142 17.4801 125.12 17.3303 125.557 17.2068C125.557 17.4763 125.557 17.3266 125.512 17.5325L124.795 18.723C124.168 19.7345 123.633 20.7994 123.196 21.9052L123.041 22.5978C123.053 22.5798 123.063 22.5611 123.071 22.5416L125.236 18.1277C125.346 18.0304 125.169 18.0791 125.474 17.9667L125.451 18.4834L125.504 18.4384C125.919 19.6364 125.904 19.2471 126.115 19.8236C126.406 20.6136 127.036 23.7396 127.511 24.4434L126.587 21.2126C126.365 20.3205 126.082 19.4449 125.738 18.5919C125.568 17.8207 125.632 18.3823 125.851 18.1614C125.9 18.7379 126.281 19.0599 126.455 19.5466C126.62 20.072 126.757 20.6056 126.866 21.1452C127.077 22.0512 127.45 23.2005 127.73 24.1215C127.786 23.9193 127.069 21.8153 126.956 21.1452C126.892 20.5339 126.748 19.9335 126.526 19.3594C126.526 19.337 126.466 19.2621 126.462 19.2583C126.236 18.911 126.098 18.5138 126.062 18.1015C126.353 18.3636 126.394 18.5695 126.508 19.0637C126.544 18.796 126.509 18.5235 126.406 18.2737C126.349 18.0641 126.266 17.7047 126.179 17.4539C126.01 16.9709 125.772 16.1173 125.636 15.7916C125.289 16.0125 125.689 15.7055 125.259 16.2895C125.021 16.6279 124.802 16.9791 124.603 17.3415L123.181 19.3519C123.062 19.5094 122.956 19.6759 122.864 19.8498" fill="#204F20"/>
<path fill-rule="evenodd" clip-rule="evenodd" d="M125.383 11.4901C125.444 11.2768 125.453 11.0523 125.41 10.8349C125.708 10.6777 125.787 10.4792 126.04 10.3183C126.488 10.0412 126.488 10.2284 126.507 9.46843C126.13 9.60695 126.338 9.40853 125.919 10.0188C125.792 10.2485 125.591 10.4302 125.349 10.5354C125.395 10.2376 125.482 9.94771 125.61 9.67434C125.263 9.77542 125.432 9.88773 125.232 9.80537L125.406 9.54331C125.587 9.54331 125.5 9.56203 125.595 9.59946L125.651 9.62567C125.855 9.6968 125.87 9.68183 126.089 9.52833C126.564 9.19514 126.602 9.50961 126.564 8.74589C126.187 8.87692 126.515 8.69722 126.277 8.97426C125.783 9.54705 126.439 8.88441 126.104 9.1914C125.768 9.49838 125.704 9.43099 125.61 9.38233C125.515 9.33366 125.504 9.7567 125.5 9.00795C125.512 9.12106 125.491 9.23509 125.44 9.33703C125.39 9.43897 125.311 9.52471 125.214 9.58449C124.836 9.8503 124.859 9.58449 124.697 10.0188C125.108 9.78665 124.723 9.83532 125.27 9.70803C125.236 10.3744 125.15 10.4119 124.942 10.6702C124.621 11.0633 125.044 10.5279 124.818 10.9734C124.727 11.1531 124.708 11.1756 124.339 11.228L124.565 10.5242C124.618 10.2659 124.625 10.3295 124.52 10.0974L124.716 9.53208C124.716 9.48715 124.738 9.44223 124.738 9.40105L124.648 9.12027C124.191 9.53956 124.693 9.86901 124.105 9.97758C124.248 9.63316 124.15 9.49089 124.237 9.24755L124.433 8.96303C124.274 8.89564 124.218 9.00421 124.373 8.35654L124.704 8.18059C125.153 7.86986 125.082 7.84365 125.127 7.58533H124.882C124.769 8.33408 124.731 7.60779 123.946 8.80204C123.946 8.83199 123.682 9.15396 123.694 9.29247C123.694 9.52084 123.622 9.29248 123.75 9.38233C123.807 9.1914 123.788 9.13899 123.973 9.06411H124.105C124.007 9.89148 123.426 9.90271 123.562 10.3482C123.562 10.3482 123.592 10.2883 123.599 10.2995C123.607 10.3108 123.626 10.2621 123.633 10.2509C123.807 9.9963 123.773 9.96261 123.961 9.8765C124.014 10.2509 123.837 10.0113 123.69 10.9098C123.599 11.4826 123.592 11.0109 123.222 11.6585C123.403 11.7184 123.362 11.6585 123.547 11.3628L123.592 11.2991C123.607 11.2768 123.623 11.2555 123.641 11.2355C123.814 11.6585 123.32 12.1564 123.264 12.5832C123.471 12.3998 123.399 12.4896 123.539 12.426L123.882 12.2463C123.826 12.0239 123.826 11.7911 123.882 11.5687C123.969 11.3216 123.882 11.4264 124.063 11.3216L124.218 12.1639C124.482 11.8382 124.293 11.6772 124.486 11.3403C124.678 11.0034 124.863 11.2767 125.07 10.8985C125.259 11.1456 125.24 10.8985 125.176 11.3178C125.342 11.5312 125.176 11.3665 125.421 11.4863" fill="#A3CA82"/>
<path fill-rule="evenodd" clip-rule="evenodd" d="M124.392 24.6193L124.463 24.4695C124.433 24.6904 124.573 24.3685 124.365 24.8439C124.113 25.4537 123.995 26.1096 124.018 26.7682L124.218 26.5586L124.407 25.8435C124.599 26.1018 124.376 26.0344 124.644 26.0382L124.693 25.6413C124.693 25.5927 124.848 25.8323 124.693 25.3381C124.648 25.6563 124.739 25.5365 124.395 25.6226C124.563 25.3172 124.701 24.9962 124.806 24.6642C124.72 25.413 124.806 25.121 124.95 25.6601C125.259 25.3119 125.014 25.7237 125.082 25.222L125.108 25.0948C125.233 25.1659 125.191 25.1547 125.259 25.2146C125.259 25.2146 125.372 25.3418 125.417 25.3868L125.44 25.1247C125.436 25.0401 125.423 24.956 125.402 24.8739C125.334 24.5819 125.187 24.4621 125.35 24.1925C125.423 24.5952 125.542 24.9883 125.704 25.3643V25.0423C125.644 24.2112 125.048 22.8859 125.15 22.0773L124.912 22.418C124.829 22.242 124.912 22.257 124.716 22.3169L124.825 22.0361C124.878 21.7853 124.825 21.8003 124.799 21.7628C124.705 21.9275 124.693 22.0361 124.625 22.1671C124.52 22.3731 124.501 22.3206 124.35 22.564C124.178 22.826 124.051 23.1144 123.973 23.4176C123.811 23.9866 123.46 24.799 123.335 25.3156L123.656 24.6755C123.969 24.024 124.071 23.4587 124.41 22.8036C124.622 22.3805 124.41 22.6351 124.648 22.4292L124.727 22.5864C124.78 22.7774 124.727 22.5602 124.772 22.826L124.818 23.1368C124.882 23.3951 124.889 23.1368 124.731 23.5935L124.629 23.9304C124.486 24.346 124.365 24.1775 124.395 24.6493" fill="#9CB18C"/>
<path fill-rule="evenodd" clip-rule="evenodd" d="M35.884 42.6717C36.2703 42.8152 36.6875 42.8565 37.0947 42.7915C37.2306 42.4512 37.2306 42.0723 37.0947 41.732C37.0947 41.732 35.586 40.9346 35.8953 42.6717" fill="#0E3B8E"/>
<path fill-rule="evenodd" clip-rule="evenodd" d="M128.989 4.60526C128.993 4.71203 129.02 4.8167 129.069 4.91225C130.034 4.96841 129.864 4.94595 129.94 5.16683C130.125 5.68721 129.913 4.84112 129.94 5.32406C129.943 5.35269 129.943 5.38155 129.94 5.41017C129.942 5.44009 129.942 5.4701 129.94 5.50002C129.914 5.50442 129.887 5.50442 129.861 5.50002C129.246 5.50002 129.71 5.45509 129.483 5.30534C129.419 5.26042 129.6 5.17431 129.268 5.26416C128.937 5.35401 129.235 5.18554 129.087 5.39894C129.212 5.59361 129.318 5.61233 129.551 5.82198C129.012 5.97173 128.718 5.32032 128.62 5.73587C129.178 5.73587 128.971 5.61608 128.963 6.02789C128.963 6.4996 128.963 6.20384 128.631 6.35359L128.465 6.40975C128.491 6.42089 128.52 6.42723 128.548 6.42847L128.85 6.47339C129.133 6.47339 128.925 6.44344 129.125 6.39477H129.551C129.551 6.39477 129.551 6.6456 129.397 6.48088C129.489 6.47259 129.581 6.48707 129.666 6.523C129.751 6.55894 129.826 6.61521 129.883 6.68679L130.094 6.81782C129.951 7.15476 130.159 6.9189 129.861 7.12855C129.936 7.10983 129.895 7.0986 130 7.15475C130.094 6.76166 130 7.12106 130.325 6.91141C130.649 6.70176 130.396 6.62314 130.649 6.72048L130.249 6.66807C130.167 6.64578 130.089 6.61037 130.019 6.56324C130.257 6.37606 130.132 6.50335 130.351 6.53704C130.527 6.55416 130.704 6.53503 130.871 6.48088C130.849 6.43595 130.909 5.95675 130.027 6.19261L130.136 6.07655C130.513 5.79952 130.574 6.09902 130.717 5.63854C130.694 5.63854 130.615 5.52248 130.596 5.51125L130.189 5.3952C130.189 5.3952 130.128 5.41766 130.113 5.3952C130.098 5.37273 130.061 5.3952 130.03 5.3952V5.02082C130.34 5.16308 130.366 5.27539 130.645 5.04702C130.43 4.27581 130.359 4.97964 129.834 4.83738C129.48 4.74004 129.808 4.35069 129.016 4.57157" fill="#98B067"/>
<path fill-rule="evenodd" clip-rule="evenodd" d="M115.124 43.7012C115.474 43.8134 115.85 43.8134 116.199 43.7012C116.277 43.4441 116.304 43.1747 116.279 42.9075C116.245 42.5743 116.071 42.593 115.751 42.5668C115.43 42.5406 115.155 42.4695 115.06 42.7802C114.978 43.0808 115.001 43.3999 115.124 43.6862" fill="#0E3B8E"/>
<path fill-rule="evenodd" clip-rule="evenodd" d="M49.6545 42.6717C49.7604 42.3174 49.7604 41.9403 49.6545 41.586C48.953 41.3876 48.5042 41.4213 48.4777 42.0764C48.4777 42.4321 48.4589 42.6342 48.7795 42.6829L49.6545 42.6717Z" fill="#0E3B8E"/>
<path fill-rule="evenodd" clip-rule="evenodd" d="M125.123 7.5965C125.097 7.85481 125.15 7.88102 124.701 8.19176L124.369 8.36771C124.214 9.01538 124.271 8.90681 124.429 8.9742L124.233 9.25872C124.146 9.50206 124.233 9.63309 124.101 9.98875C124.689 9.87269 124.188 9.55073 124.644 9.13143L124.735 9.41221C124.735 9.4534 124.716 9.49832 124.712 9.54325C125.112 9.16887 124.799 9.27369 124.889 8.97794C125.003 8.60356 125.361 8.94425 125.576 8.20299C125.263 8.27037 125.093 8.33027 124.984 8.55115C124.772 8.97794 125.029 8.92553 124.569 9.04533L124.539 8.96671C124.501 8.85903 124.497 8.74276 124.527 8.63273C124.556 8.5227 124.618 8.42392 124.705 8.34899C124.719 8.33622 124.733 8.32246 124.746 8.30781L124.791 8.27037L124.878 8.20299C125.572 7.64517 125.768 7.90349 125.866 7.45424L126.296 7.5029C126.275 7.50167 126.253 7.50167 126.232 7.5029C126.232 7.5029 126.183 7.50291 126.172 7.52537L126.119 7.5628C125.949 7.72753 126.093 7.41305 126.028 7.78368C126.099 7.78812 126.17 7.77623 126.236 7.74896C126.301 7.72168 126.359 7.67975 126.406 7.62645C126.538 7.46921 126.481 7.55531 126.474 7.3569C126.247 7.29493 126.01 7.28125 125.778 7.31674C125.546 7.35223 125.324 7.43609 125.127 7.5628" fill="#126427"/>
<path d="M54.8029 14.0807C54.7853 13.5158 54.8868 12.9535 55.1009 12.4297C55.2463 12.1013 55.4508 11.8019 55.7044 11.5462C55.9403 11.2977 56.2253 11.1001 56.5417 10.9659C56.9859 10.7878 57.462 10.7012 57.941 10.7114C58.3648 10.6911 58.7882 10.7593 59.1838 10.9115C59.5795 11.0637 59.9386 11.2965 60.238 11.5949C60.7923 12.2924 61.0938 13.1549 61.0938 14.0433C61.0938 14.9317 60.7923 15.7942 60.238 16.4917C59.61 17.057 58.7926 17.3702 57.9448 17.3702C57.097 17.3702 56.2795 17.057 55.6516 16.4917C55.3572 16.1651 55.1306 15.784 54.985 15.3702C54.8394 14.9565 54.7775 14.5183 54.8029 14.0807ZM56.1532 14.0358C56.1104 14.6333 56.2918 15.2253 56.6624 15.698C56.8233 15.8801 57.0227 16.0248 57.2462 16.1218C57.4698 16.2189 57.7122 16.2659 57.9561 16.2596C58.1987 16.2666 58.4398 16.2202 58.6622 16.1237C58.8845 16.0273 59.0826 15.8832 59.2423 15.7018C59.6115 15.2215 59.79 14.6232 59.7439 14.0208C59.7913 13.4281 59.6167 12.839 59.2536 12.3661C59.0845 12.1933 58.8822 12.056 58.6587 11.9622C58.4352 11.8684 58.195 11.8201 57.9523 11.8201C57.7097 11.8201 57.4695 11.8684 57.246 11.9622C57.0225 12.056 56.8202 12.1933 56.6511 12.3661C56.2823 12.8422 56.1049 13.4372 56.1532 14.0358Z" fill="#0E3B8E"/>
<path d="M54.8029 14.0807C54.7853 13.5158 54.8868 12.9535 55.1009 12.4297C55.2463 12.1013 55.4508 11.8019 55.7044 11.5462C55.9403 11.2977 56.2253 11.1001 56.5417 10.9659C56.9859 10.7878 57.462 10.7012 57.941 10.7114C58.3648 10.6911 58.7882 10.7593 59.1838 10.9115C59.5795 11.0637 59.9386 11.2965 60.238 11.5949C60.7923 12.2924 61.0938 13.1549 61.0938 14.0433C61.0938 14.9317 60.7923 15.7942 60.238 16.4917C59.61 17.057 58.7926 17.3702 57.9448 17.3702C57.097 17.3702 56.2795 17.057 55.6516 16.4917C55.3572 16.1651 55.1306 15.784 54.985 15.3702C54.8394 14.9565 54.7775 14.5183 54.8029 14.0807ZM56.1532 14.0358C56.1104 14.6333 56.2918 15.2253 56.6624 15.698C56.8233 15.8801 57.0227 16.0248 57.2462 16.1218C57.4698 16.2189 57.7122 16.2659 57.9561 16.2596C58.1987 16.2666 58.4398 16.2202 58.6622 16.1237C58.8845 16.0273 59.0826 15.8832 59.2423 15.7018C59.6115 15.2215 59.79 14.6232 59.7439 14.0208C59.7913 13.4281 59.6167 12.839 59.2536 12.3661C59.0845 12.1933 58.8822 12.056 58.6587 11.9622C58.4352 11.8684 58.195 11.8201 57.9523 11.8201C57.7097 11.8201 57.4695 11.8684 57.246 11.9622C57.0225 12.056 56.8202 12.1933 56.6511 12.3661C56.2823 12.8422 56.1049 13.4372 56.1532 14.0358Z" fill="#0E3B8E"/>
<path d="M63.3081 17.2629H62.0635V12.5944H63.2176V13.2608C63.3519 13.0198 63.5341 12.8083 63.7532 12.6393C63.9128 12.5377 64.0992 12.4856 64.2888 12.4896C64.5778 12.4916 64.8608 12.5718 65.1073 12.7217L64.7301 13.7999C64.5592 13.6775 64.356 13.6072 64.1455 13.5977C63.9863 13.5938 63.8306 13.644 63.7042 13.74C63.5592 13.8802 63.4594 14.0601 63.4175 14.2566C63.3287 14.7733 63.2945 15.2978 63.3157 15.8215L63.3081 17.2629Z" fill="#0E3B8E"/>
<path d="M63.3081 17.2629H62.0635V12.5944H63.2176V13.2608C63.3519 13.0198 63.5341 12.8083 63.7532 12.6393C63.9128 12.5377 64.0992 12.4856 64.2888 12.4896C64.5778 12.4916 64.8608 12.5718 65.1073 12.7217L64.7301 13.7999C64.5592 13.6775 64.356 13.6072 64.1455 13.5977C63.9863 13.5938 63.8306 13.644 63.7042 13.74C63.5592 13.8802 63.4594 14.0601 63.4175 14.2566C63.3287 14.7733 63.2945 15.2978 63.3157 15.8215L63.3081 17.2629Z" fill="#0E3B8E"/>
<path d="M65.5261 17.5549L66.9481 17.7271C66.9509 17.7916 66.967 17.8548 66.9956 17.9128C67.0241 17.9708 67.0645 18.0223 67.114 18.064C67.2795 18.1669 67.4739 18.2141 67.6685 18.1988C67.9211 18.215 68.1735 18.1646 68.4002 18.0528C68.5164 17.9803 68.6042 17.8707 68.6491 17.7421C68.6964 17.5562 68.7155 17.3644 68.7057 17.173V16.5066C68.5523 16.7376 68.3433 16.9269 68.0977 17.0577C67.8521 17.1884 67.5776 17.2563 67.2989 17.2554C66.9998 17.2634 66.7037 17.1946 66.4393 17.0555C66.175 16.9165 65.9514 16.7119 65.7902 16.4617C65.4875 15.9965 65.3361 15.4502 65.3564 14.8968C65.3107 14.2491 65.5142 13.6082 65.9259 13.1036C66.1013 12.9033 66.319 12.7438 66.5634 12.6364C66.8078 12.529 67.0731 12.4764 67.3404 12.4821C67.6234 12.4802 67.9026 12.5475 68.1532 12.6781C68.4038 12.8087 68.6182 12.9985 68.7774 13.2309V12.5757H69.9428V16.765C69.9592 17.1812 69.9134 17.5975 69.8071 18.0004C69.736 18.2412 69.6064 18.461 69.4299 18.6406C69.2415 18.8137 69.0158 18.9418 68.7698 19.0149C68.4289 19.1103 68.0754 19.1544 67.7213 19.146C66.9255 19.146 66.3597 19.0112 66.0278 18.7379C65.8688 18.6172 65.7406 18.4612 65.6535 18.2824C65.5664 18.1036 65.5228 17.907 65.5261 17.7084C65.5224 17.6784 65.5224 17.6298 65.5261 17.5549ZM66.6388 14.8182C66.6073 15.2025 66.7099 15.5858 66.9292 15.9039C67.0128 16.0128 67.1206 16.1009 67.2444 16.1613C67.3681 16.2217 67.5042 16.2528 67.6421 16.2521C67.7863 16.2505 67.9284 16.2179 68.0586 16.1565C68.1889 16.0951 68.3041 16.0064 68.3964 15.8964C68.6256 15.5963 68.7369 15.2237 68.7095 14.8482C68.7395 14.4659 68.6326 14.0854 68.4078 13.7737C68.3172 13.662 68.2022 13.5723 68.0715 13.5113C67.9408 13.4503 67.7978 13.4197 67.6534 13.4218C67.5092 13.4156 67.3655 13.4436 67.2343 13.5035C67.1031 13.5634 66.9882 13.6535 66.8991 13.7662C66.6896 14.0809 66.5976 14.4583 66.6388 14.8332V14.8182Z" fill="#0E3B8E"/>
<path d="M65.5261 17.5549L66.9481 17.7271C66.9509 17.7916 66.967 17.8548 66.9956 17.9128C67.0241 17.9708 67.0645 18.0223 67.114 18.064C67.2795 18.1669 67.4739 18.2141 67.6685 18.1988C67.9211 18.215 68.1735 18.1646 68.4002 18.0528C68.5164 17.9803 68.6042 17.8707 68.6491 17.7421C68.6964 17.5562 68.7155 17.3644 68.7057 17.173V16.5066C68.5523 16.7376 68.3433 16.9269 68.0977 17.0577C67.8521 17.1884 67.5776 17.2563 67.2989 17.2554C66.9998 17.2634 66.7037 17.1946 66.4393 17.0555C66.175 16.9165 65.9514 16.7119 65.7902 16.4617C65.4875 15.9965 65.3361 15.4502 65.3564 14.8968C65.3107 14.2491 65.5142 13.6082 65.9259 13.1036C66.1013 12.9033 66.319 12.7438 66.5634 12.6364C66.8078 12.529 67.0731 12.4764 67.3404 12.4821C67.6234 12.4802 67.9026 12.5475 68.1532 12.6781C68.4038 12.8087 68.6182 12.9985 68.7774 13.2309V12.5757H69.9428V16.765C69.9592 17.1812 69.9134 17.5975 69.8071 18.0004C69.736 18.2412 69.6064 18.461 69.4299 18.6406C69.2415 18.8137 69.0158 18.9418 68.7698 19.0149C68.4289 19.1103 68.0754 19.1544 67.7213 19.146C66.9255 19.146 66.3597 19.0112 66.0278 18.7379C65.8688 18.6172 65.7406 18.4612 65.6535 18.2824C65.5664 18.1036 65.5228 17.907 65.5261 17.7084C65.5224 17.6784 65.5224 17.6298 65.5261 17.5549ZM66.6388 14.8182C66.6073 15.2025 66.7099 15.5858 66.9292 15.9039C67.0128 16.0128 67.1206 16.1009 67.2444 16.1613C67.3681 16.2217 67.5042 16.2528 67.6421 16.2521C67.7863 16.2505 67.9284 16.2179 68.0586 16.1565C68.1889 16.0951 68.3041 16.0064 68.3964 15.8964C68.6256 15.5963 68.7369 15.2237 68.7095 14.8482C68.7395 14.4659 68.6326 14.0854 68.4078 13.7737C68.3172 13.662 68.2022 13.5723 68.0715 13.5113C67.9408 13.4503 67.7978 13.4197 67.6534 13.4218C67.5092 13.4156 67.3655 13.4436 67.2343 13.5035C67.1031 13.5634 66.9882 13.6535 66.8991 13.7662C66.6896 14.0809 66.5976 14.4583 66.6388 14.8332V14.8182Z" fill="#0E3B8E"/>
<path d="M72.1114 14.0208L70.9798 13.8186C71.0707 13.418 71.302 13.0625 71.6323 12.8153C72.0502 12.571 72.5327 12.4574 73.0166 12.4896C73.4381 12.4679 73.8596 12.5342 74.2537 12.6843C74.4932 12.7856 74.694 12.96 74.827 13.1822C74.9651 13.5333 75.0218 13.9108 74.993 14.2866V15.7279C74.9844 16.0324 75.0046 16.337 75.0533 16.6377C75.0994 16.8549 75.1742 17.0651 75.2758 17.2629H74.0463C74.0123 17.1805 73.9746 17.0607 73.9256 16.8885C73.9148 16.8386 73.8996 16.7898 73.8803 16.7425C73.6855 16.9373 73.4551 17.0936 73.2014 17.203C72.9559 17.3069 72.6913 17.3591 72.4244 17.3565C72.0129 17.38 71.6079 17.246 71.2929 16.9821C71.1565 16.8563 71.0486 16.703 70.9764 16.5326C70.9042 16.3622 70.8694 16.1785 70.8742 15.9937C70.8701 15.7451 70.9354 15.5002 71.0628 15.2862C71.1916 15.0799 71.3775 14.9148 71.5984 14.8107C71.9143 14.6746 72.2464 14.579 72.5866 14.5262C72.9975 14.4622 73.4015 14.3607 73.7936 14.2229V14.0994C73.8033 14.0071 73.7928 13.9139 73.7629 13.826C73.7329 13.7381 73.6842 13.6577 73.62 13.5903C73.4139 13.4635 73.1707 13.4095 72.9298 13.4368C72.7449 13.4168 72.559 13.4654 72.4079 13.5732C72.2568 13.681 72.1512 13.8404 72.1114 14.0208ZM73.7747 15.0204C73.6163 15.0728 73.3636 15.1364 73.0203 15.2113C72.7843 15.2471 72.5553 15.3191 72.3414 15.4247C72.267 15.4716 72.2055 15.5362 72.1627 15.6127C72.1199 15.6892 72.097 15.7752 72.0963 15.8627C72.096 15.9464 72.1133 16.0293 72.1471 16.106C72.1808 16.1827 72.2303 16.2515 72.2924 16.3082C72.3581 16.3718 72.4361 16.4215 72.5216 16.4543C72.6072 16.4871 72.6986 16.5024 72.7903 16.4991C73.0223 16.4956 73.2471 16.4182 73.4315 16.2783C73.5732 16.1784 73.6779 16.035 73.7294 15.8702C73.7679 15.6717 73.7831 15.4694 73.7747 15.2675V15.0204Z" fill="#0E3B8E"/>
<path d="M72.1114 14.0208L70.9798 13.8186C71.0707 13.418 71.302 13.0625 71.6323 12.8153C72.0502 12.571 72.5327 12.4574 73.0166 12.4896C73.4381 12.4679 73.8596 12.5342 74.2537 12.6843C74.4932 12.7856 74.694 12.96 74.827 13.1822C74.9651 13.5333 75.0218 13.9108 74.993 14.2866V15.7279C74.9844 16.0324 75.0046 16.337 75.0533 16.6377C75.0994 16.8549 75.1742 17.0651 75.2758 17.2629H74.0463C74.0123 17.1805 73.9746 17.0607 73.9256 16.8885C73.9148 16.8386 73.8996 16.7898 73.8803 16.7425C73.6855 16.9373 73.4551 17.0936 73.2014 17.203C72.9559 17.3069 72.6913 17.3591 72.4244 17.3565C72.0129 17.38 71.6079 17.246 71.2929 16.9821C71.1565 16.8563 71.0486 16.703 70.9764 16.5326C70.9042 16.3622 70.8694 16.1785 70.8742 15.9937C70.8701 15.7451 70.9354 15.5002 71.0628 15.2862C71.1916 15.0799 71.3775 14.9148 71.5984 14.8107C71.9143 14.6746 72.2464 14.579 72.5866 14.5262C72.9975 14.4622 73.4015 14.3607 73.7936 14.2229V14.0994C73.8033 14.0071 73.7928 13.9139 73.7629 13.826C73.7329 13.7381 73.6842 13.6577 73.62 13.5903C73.4139 13.4635 73.1707 13.4095 72.9298 13.4368C72.7449 13.4168 72.559 13.4654 72.4079 13.5732C72.2568 13.681 72.1512 13.8404 72.1114 14.0208ZM73.7747 15.0204C73.6163 15.0728 73.3636 15.1364 73.0203 15.2113C72.7843 15.2471 72.5553 15.3191 72.3414 15.4247C72.267 15.4716 72.2055 15.5362 72.1627 15.6127C72.1199 15.6892 72.097 15.7752 72.0963 15.8627C72.096 15.9464 72.1133 16.0293 72.1471 16.106C72.1808 16.1827 72.2303 16.2515 72.2924 16.3082C72.3581 16.3718 72.4361 16.4215 72.5216 16.4543C72.6072 16.4871 72.6986 16.5024 72.7903 16.4991C73.0223 16.4956 73.2471 16.4182 73.4315 16.2783C73.5732 16.1784 73.6779 16.035 73.7294 15.8702C73.7679 15.6717 73.7831 15.4694 73.7747 15.2675V15.0204Z" fill="#0E3B8E"/>
<path d="M80.5037 17.2629H79.259V14.8819C79.2766 14.5542 79.25 14.2255 79.1798 13.9048C79.1336 13.7637 79.0422 13.6415 78.9196 13.5566C78.7917 13.4745 78.6418 13.4328 78.4896 13.4368C78.2821 13.433 78.0787 13.4946 77.9087 13.6128C77.7423 13.7237 77.6186 13.8873 77.558 14.077C77.4764 14.4278 77.4435 14.7881 77.4599 15.1477V17.2629H76.219V12.5945H77.3731V13.2796C77.5485 13.0339 77.7809 12.8338 78.0508 12.6963C78.3207 12.5587 78.62 12.4879 78.9233 12.4897C79.1827 12.4851 79.44 12.5362 79.6777 12.6394C79.8802 12.7168 80.0585 12.8459 80.1944 13.0138C80.3118 13.167 80.3953 13.343 80.4396 13.5304C80.4919 13.8043 80.5147 14.0829 80.5075 14.3615L80.5037 17.2629Z" fill="#0E3B8E"/>
<path d="M80.5037 17.2629H79.259V14.8819C79.2766 14.5542 79.25 14.2255 79.1798 13.9048C79.1336 13.7637 79.0422 13.6415 78.9196 13.5566C78.7917 13.4745 78.6418 13.4328 78.4896 13.4368C78.2821 13.433 78.0787 13.4946 77.9087 13.6128C77.7423 13.7237 77.6186 13.8873 77.558 14.077C77.4764 14.4278 77.4435 14.7881 77.4599 15.1477V17.2629H76.219V12.5945H77.3731V13.2796C77.5485 13.0339 77.7809 12.8338 78.0508 12.6963C78.3207 12.5587 78.62 12.4879 78.9233 12.4897C79.1827 12.4851 79.44 12.5362 79.6777 12.6394C79.8802 12.7168 80.0585 12.8459 80.1944 13.0138C80.3118 13.167 80.3953 13.343 80.4396 13.5304C80.4919 13.8043 80.5147 14.0829 80.5075 14.3615L80.5037 17.2629Z" fill="#0E3B8E"/>
<path d="M81.7671 11.9617V10.8162H83.0118V11.958L81.7671 11.9617ZM81.7671 17.2629V12.5944H83.0118V17.2629H81.7671Z" fill="#0E3B8E"/>
<path d="M81.7671 11.9617V10.8162H83.0118V11.958L81.7671 11.9617ZM81.7671 17.2629V12.5944H83.0118V17.2629H81.7671Z" fill="#0E3B8E"/>
<path d="M88.394 13.9759L87.1682 14.1968C87.1437 13.9856 87.0432 13.7902 86.8853 13.6465C86.7242 13.5187 86.5217 13.4535 86.3158 13.4631C86.1738 13.4549 86.0319 13.4794 85.9011 13.5346C85.7703 13.5898 85.654 13.6742 85.5614 13.7813C85.3462 14.0925 85.2475 14.4686 85.2823 14.8445C85.243 15.2566 85.3425 15.67 85.5652 16.02C85.6551 16.1316 85.7703 16.2206 85.9013 16.2798C86.0324 16.339 86.1757 16.3667 86.3195 16.3607C86.5316 16.3708 86.7395 16.2997 86.9004 16.1623C87.0782 15.9727 87.1894 15.731 87.2172 15.4734L88.4392 15.6793C88.352 16.1712 88.0945 16.6174 87.7113 16.941C87.292 17.2437 86.7807 17.3944 86.263 17.3678C85.9585 17.3825 85.6544 17.3327 85.3708 17.2217C85.0873 17.1107 84.8308 16.9409 84.6185 16.7239C84.2199 16.209 84.0039 15.578 84.0039 14.9287C84.0039 14.2795 84.2199 13.6484 84.6185 13.1336C84.8354 12.9163 85.0959 12.7467 85.3831 12.6358C85.6703 12.5248 85.9778 12.4751 86.2856 12.4897C86.7691 12.4681 87.2471 12.5991 87.651 12.8641C88.0165 13.1422 88.278 13.5335 88.394 13.9759Z" fill="#0E3B8E"/>
<path d="M88.394 13.9759L87.1682 14.1968C87.1437 13.9856 87.0432 13.7902 86.8853 13.6465C86.7242 13.5187 86.5217 13.4535 86.3158 13.4631C86.1738 13.4549 86.0319 13.4794 85.9011 13.5346C85.7703 13.5898 85.654 13.6742 85.5614 13.7813C85.3462 14.0925 85.2475 14.4686 85.2823 14.8445C85.243 15.2566 85.3425 15.67 85.5652 16.02C85.6551 16.1316 85.7703 16.2206 85.9013 16.2798C86.0324 16.339 86.1757 16.3667 86.3195 16.3607C86.5316 16.3708 86.7395 16.2997 86.9004 16.1623C87.0782 15.9727 87.1894 15.731 87.2172 15.4734L88.4392 15.6793C88.352 16.1712 88.0945 16.6174 87.7113 16.941C87.292 17.2437 86.7807 17.3944 86.263 17.3678C85.9585 17.3825 85.6544 17.3327 85.3708 17.2217C85.0873 17.1107 84.8308 16.9409 84.6185 16.7239C84.2199 16.209 84.0039 15.578 84.0039 14.9287C84.0039 14.2795 84.2199 13.6484 84.6185 13.1336C84.8354 12.9163 85.0959 12.7467 85.3831 12.6358C85.6703 12.5248 85.9778 12.4751 86.2856 12.4897C86.7691 12.4681 87.2471 12.5991 87.651 12.8641C88.0165 13.1422 88.278 13.5335 88.394 13.9759Z" fill="#0E3B8E"/>
<path d="M136.122 20.314V20.7707H135.201V23.7395H134.635V20.7707H133.711V20.314H136.122Z" fill="#1A171B"/>
<path d="M140.625 20.314V23.7395H140.067V21.3922L139.015 23.7395H138.637L137.577 21.3922V23.7395H137.012V20.314H137.623L138.833 23.002L140.04 20.314H140.625Z" fill="#1A171B"/>
</svg>
